<?xml version="1.0" encoding="UTF-8"?>
<svg xmlns="http://www.w3.org/2000/svg" xmlns:xlink="http://www.w3.org/1999/xlink" width="36.88pt" height="16.43pt" viewBox="0 0 36.88 16.43" version="1.1">
<defs>
<clipPath id="clip1">
  <path d="M 0 0.03125 L 36.898438 0.03125 L 36.898438 7 L 0 7 Z M 0 0.03125 "/>
</clipPath>
<clipPath id="clip2">
  <path d="M 0 0.03125 L 36.898438 0.03125 L 36.898438 9 L 0 9 Z M 0 0.03125 "/>
</clipPath>
<clipPath id="clip3">
  <path d="M 30 0.03125 L 36.898438 0.03125 L 36.898438 16 L 30 16 Z M 30 0.03125 "/>
</clipPath>
<clipPath id="clip4">
  <path d="M 28 0.03125 L 36.898438 0.03125 L 36.898438 16.03125 L 28 16.03125 Z M 28 0.03125 "/>
</clipPath>
<clipPath id="clip5">
  <path d="M 0 5 L 32 5 L 32 16.03125 L 0 16.03125 Z M 0 5 "/>
</clipPath>
</defs>
<g id="surface1">
<g clip-path="url(#clip1)" clip-rule="nonzero">
<path style=" stroke:none;fill-rule:nonzero;fill:rgb(3.292847%,48.297119%,73.150635%);fill-opacity:1;" d="M 0.605469 6.160156 L 8.300781 0.472656 L 36.40625 0.472656 L 30.8125 6.160156 L 0.605469 6.160156 "/>
</g>
<g clip-path="url(#clip2)" clip-rule="nonzero">
<path style="fill:none;stroke-width:3.99994;stroke-linecap:butt;stroke-linejoin:miter;stroke:rgb(100%,100%,100%);stroke-opacity:1;stroke-miterlimit:4;" d="M 6.054688 102.698438 L 83.007812 159.573438 L 364.0625 159.573438 L 308.125 102.698438 Z M 6.054688 102.698438 " transform="matrix(0.1,0,0,-0.1,0,16.43)"/>
</g>
<g clip-path="url(#clip3)" clip-rule="nonzero">
<path style=" stroke:none;fill-rule:nonzero;fill:rgb(3.292847%,48.297119%,73.150635%);fill-opacity:1;" d="M 30.8125 15.941406 L 36.40625 10.277344 L 36.40625 0.488281 L 30.8125 6.160156 L 30.8125 15.941406 "/>
</g>
<g clip-path="url(#clip4)" clip-rule="nonzero">
<path style="fill:none;stroke-width:3.99994;stroke-linecap:butt;stroke-linejoin:miter;stroke:rgb(100%,100%,100%);stroke-opacity:1;stroke-miterlimit:4;" d="M 308.125 4.885938 L 364.0625 61.526563 L 364.0625 159.417188 L 308.125 102.698438 Z M 308.125 4.885938 " transform="matrix(0.1,0,0,-0.1,0,16.43)"/>
</g>
<path style=" stroke:none;fill-rule:nonzero;fill:rgb(3.292847%,48.297119%,73.150635%);fill-opacity:1;" d="M 0.648438 15.953125 L 30.8125 15.953125 L 30.8125 6.160156 L 0.648438 6.160156 Z M 0.648438 15.953125 "/>
<g clip-path="url(#clip5)" clip-rule="nonzero">
<path style="fill:none;stroke-width:3.99994;stroke-linecap:butt;stroke-linejoin:miter;stroke:rgb(100%,100%,100%);stroke-opacity:1;stroke-miterlimit:4;" d="M 6.484375 4.76875 L 308.125 4.76875 L 308.125 102.698438 L 6.484375 102.698438 Z M 6.484375 4.76875 " transform="matrix(0.1,0,0,-0.1,0,16.43)"/>
</g>
<path style="fill:none;stroke-width:4.49997;stroke-linecap:round;stroke-linejoin:miter;stroke:rgb(100%,100%,100%);stroke-opacity:1;stroke-miterlimit:1;" d="M 284.140625 53.010938 C 284.140625 53.010938 264.570312 2.698438 241.015625 53.128125 C 217.539062 103.557813 197.929688 53.245313 197.929688 53.245313 C 197.929688 53.245313 178.359375 2.89375 154.84375 53.3625 C 131.367188 103.792188 111.875 53.05 111.875 53.05 C 111.875 53.05 92.34375 2.698438 68.828125 53.128125 C 45.3125 103.557813 25.820312 53.284375 25.820312 53.284375 " transform="matrix(0.1,0,0,-0.1,0,16.43)"/>
<path style="fill:none;stroke-width:8.99994;stroke-linecap:round;stroke-linejoin:miter;stroke:rgb(100%,100%,100%);stroke-opacity:1;stroke-miterlimit:1;" d="M 25.820312 53.010938 C 25.820312 53.010938 45.390625 2.698438 68.90625 53.128125 C 92.421875 103.557813 112.03125 53.245313 112.03125 53.245313 C 112.03125 53.245313 131.5625 2.89375 155.078125 53.3625 C 178.59375 103.792188 198.085938 53.05 198.085938 53.05 C 198.085938 53.05 217.578125 2.698438 241.132812 53.128125 C 264.609375 103.557813 284.140625 53.284375 284.140625 53.284375 " transform="matrix(0.1,0,0,-0.1,0,16.43)"/>
<path style="fill:none;stroke-width:4.49997;stroke-linecap:round;stroke-linejoin:miter;stroke:rgb(13.729858%,12.159729%,12.548828%);stroke-opacity:1;stroke-miterlimit:1;" d="M 288.671875 53.010938 C 288.671875 53.010938 269.101562 2.698438 245.546875 53.128125 C 222.070312 103.557813 202.460938 53.245313 202.460938 53.245313 C 202.460938 53.245313 182.890625 2.89375 159.375 53.3625 C 135.898438 103.792188 116.40625 53.05 116.40625 53.05 C 116.40625 53.05 96.875 2.698438 73.359375 53.128125 C 49.84375 103.557813 30.351562 53.284375 30.351562 53.284375 " transform="matrix(0.1,0,0,-0.1,0,16.43)"/>
<path style="fill:none;stroke-width:8.99994;stroke-linecap:round;stroke-linejoin:miter;stroke:rgb(13.729858%,12.159729%,12.548828%);stroke-opacity:1;stroke-miterlimit:1;" d="M 30.351562 53.010938 C 30.351562 53.010938 49.921875 2.698438 73.4375 53.128125 C 96.953125 103.557813 116.5625 53.245313 116.5625 53.245313 C 116.5625 53.245313 136.09375 2.89375 159.609375 53.3625 C 183.125 103.792188 202.617188 53.05 202.617188 53.05 C 202.617188 53.05 222.109375 2.698438 245.664062 53.128125 C 269.140625 103.557813 288.671875 53.284375 288.671875 53.284375 " transform="matrix(0.1,0,0,-0.1,0,16.43)"/>
<path style="fill:none;stroke-width:4.49997;stroke-linecap:round;stroke-linejoin:miter;stroke:rgb(100%,100%,100%);stroke-opacity:1;stroke-miterlimit:1;" d="M 284.140625 53.010938 C 284.140625 53.010938 264.570312 2.698438 241.015625 53.128125 C 217.539062 103.557813 197.929688 53.245313 197.929688 53.245313 C 197.929688 53.245313 178.359375 2.89375 154.84375 53.3625 C 131.367188 103.792188 111.875 53.05 111.875 53.05 C 111.875 53.05 92.34375 2.698438 68.828125 53.128125 C 45.3125 103.557813 25.820312 53.284375 25.820312 53.284375 " transform="matrix(0.1,0,0,-0.1,0,16.43)"/>
<path style="fill:none;stroke-width:8.99994;stroke-linecap:round;stroke-linejoin:miter;stroke:rgb(100%,100%,100%);stroke-opacity:1;stroke-miterlimit:1;" d="M 25.820312 53.010938 C 25.820312 53.010938 45.390625 2.698438 68.90625 53.128125 C 92.421875 103.557813 112.03125 53.245313 112.03125 53.245313 C 112.03125 53.245313 131.5625 2.89375 155.078125 53.3625 C 178.59375 103.792188 198.085938 53.05 198.085938 53.05 C 198.085938 53.05 217.578125 2.698438 241.132812 53.128125 C 264.609375 103.557813 284.140625 53.284375 284.140625 53.284375 " transform="matrix(0.1,0,0,-0.1,0,16.43)"/>
<path style="fill:none;stroke-width:4.49997;stroke-linecap:round;stroke-linejoin:miter;stroke:rgb(13.729858%,12.159729%,12.548828%);stroke-opacity:1;stroke-miterlimit:1;" d="M 288.671875 53.010938 C 288.671875 53.010938 269.101562 2.698438 245.546875 53.128125 C 222.070312 103.557813 202.460938 53.245313 202.460938 53.245313 C 202.460938 53.245313 182.890625 2.89375 159.375 53.3625 C 135.898438 103.792188 116.40625 53.05 116.40625 53.05 C 116.40625 53.05 96.875 2.698438 73.359375 53.128125 C 49.84375 103.557813 30.351562 53.284375 30.351562 53.284375 " transform="matrix(0.1,0,0,-0.1,0,16.43)"/>
<path style="fill:none;stroke-width:8.99994;stroke-linecap:round;stroke-linejoin:miter;stroke:rgb(13.729858%,12.159729%,12.548828%);stroke-opacity:1;stroke-miterlimit:1;" d="M 30.351562 53.010938 C 30.351562 53.010938 49.921875 2.698438 73.4375 53.128125 C 96.953125 103.557813 116.5625 53.245313 116.5625 53.245313 C 116.5625 53.245313 136.09375 2.89375 159.609375 53.3625 C 183.125 103.792188 202.617188 53.05 202.617188 53.05 C 202.617188 53.05 222.109375 2.698438 245.664062 53.128125 C 269.140625 103.557813 288.671875 53.284375 288.671875 53.284375 " transform="matrix(0.1,0,0,-0.1,0,16.43)"/>
<path style="fill:none;stroke-width:4.49997;stroke-linecap:round;stroke-linejoin:miter;stroke:rgb(100%,100%,100%);stroke-opacity:1;stroke-miterlimit:1;" d="M 284.140625 53.010938 C 284.140625 53.010938 264.570312 2.698438 241.015625 53.128125 C 217.539062 103.557813 197.929688 53.245313 197.929688 53.245313 C 197.929688 53.245313 178.359375 2.89375 154.84375 53.3625 C 131.367188 103.792188 111.875 53.05 111.875 53.05 C 111.875 53.05 92.34375 2.698438 68.828125 53.128125 C 45.3125 103.557813 25.820312 53.284375 25.820312 53.284375 " transform="matrix(0.1,0,0,-0.1,0,16.43)"/>
<path style="fill:none;stroke-width:8.99994;stroke-linecap:round;stroke-linejoin:miter;stroke:rgb(100%,100%,100%);stroke-opacity:1;stroke-miterlimit:1;" d="M 25.820312 53.010938 C 25.820312 53.010938 45.390625 2.698438 68.90625 53.128125 C 92.421875 103.557813 112.03125 53.245313 112.03125 53.245313 C 112.03125 53.245313 131.5625 2.89375 155.078125 53.3625 C 178.59375 103.792188 198.085938 53.05 198.085938 53.05 C 198.085938 53.05 217.578125 2.698438 241.132812 53.128125 C 264.609375 103.557813 284.140625 53.284375 284.140625 53.284375 " transform="matrix(0.1,0,0,-0.1,0,16.43)"/>
</g>
</svg>
