<?xml version="1.0" encoding="UTF-8"?>
<svg xmlns="http://www.w3.org/2000/svg" xmlns:xlink="http://www.w3.org/1999/xlink" width="15.1pt" height="33.12pt" viewBox="0 0 15.1 33.12" version="1.1">
<defs>
<clipPath id="clip1">
  <path d="M 0 0.0195312 L 15 0.0195312 L 15 7 L 0 7 Z M 0 0.0195312 "/>
</clipPath>
<clipPath id="clip2">
  <path d="M 0 0.0195312 L 15 0.0195312 L 15 9 L 0 9 Z M 0 0.0195312 "/>
</clipPath>
<clipPath id="clip3">
  <path d="M 8 0.0195312 L 15 0.0195312 L 15 33 L 8 33 Z M 8 0.0195312 "/>
</clipPath>
<clipPath id="clip4">
  <path d="M 6 0.0195312 L 15 0.0195312 L 15 33.019531 L 6 33.019531 Z M 6 0.0195312 "/>
</clipPath>
<clipPath id="clip5">
  <path d="M 6 19 L 15 19 L 15 31 L 6 31 Z M 6 19 "/>
</clipPath>
<clipPath id="clip6">
  <path d="M 6 15 L 15 15 L 15 27 L 6 27 Z M 6 15 "/>
</clipPath>
<clipPath id="clip7">
  <path d="M 6 10 L 15 10 L 15 22 L 6 22 Z M 6 10 "/>
</clipPath>
<clipPath id="clip8">
  <path d="M 6 6 L 15 6 L 15 18 L 6 18 Z M 6 6 "/>
</clipPath>
<clipPath id="clip9">
  <path d="M 6 2 L 15 2 L 15 13 L 6 13 Z M 6 2 "/>
</clipPath>
<clipPath id="clip10">
  <path d="M 8 0.0195312 L 15 0.0195312 L 15 7 L 8 7 Z M 8 0.0195312 "/>
</clipPath>
<clipPath id="clip11">
  <path d="M 6 0.0195312 L 15 0.0195312 L 15 9 L 6 9 Z M 6 0.0195312 "/>
</clipPath>
</defs>
<g id="surface1">
<path style="fill-rule:nonzero;fill:rgb(3.115845%,49.784851%,74.839783%);fill-opacity:1;stroke-width:4;stroke-linecap:butt;stroke-linejoin:miter;stroke:rgb(100%,100%,100%);stroke-opacity:1;stroke-miterlimit:4;" d="M 5.742188 5.614063 L 85 5.614063 L 85 270.457813 L 5.742188 270.457813 Z M 5.742188 5.614063 " transform="matrix(0.1,0,0,-0.1,0,33.12)"/>
<g clip-path="url(#clip1)" clip-rule="nonzero">
<path style=" stroke:none;fill-rule:nonzero;fill:rgb(3.115845%,49.784851%,74.839783%);fill-opacity:1;" d="M 8.5 6.074219 L 0.574219 6.074219 L 7.675781 0.457031 L 14.589844 0.457031 L 8.5 6.074219 "/>
</g>
<g clip-path="url(#clip2)" clip-rule="nonzero">
<path style="fill:none;stroke-width:4;stroke-linecap:butt;stroke-linejoin:miter;stroke:rgb(100%,100%,100%);stroke-opacity:1;stroke-miterlimit:4;" d="M 85 270.457813 L 5.742188 270.457813 L 76.757812 326.629688 L 145.898438 326.629688 Z M 85 270.457813 " transform="matrix(0.1,0,0,-0.1,0,33.12)"/>
</g>
<g clip-path="url(#clip3)" clip-rule="nonzero">
<path style=" stroke:none;fill-rule:nonzero;fill:rgb(3.115845%,49.784851%,74.839783%);fill-opacity:1;" d="M 14.589844 0.457031 L 14.589844 25.730469 L 8.5 32.59375 L 8.5 6.074219 L 14.589844 0.457031 "/>
</g>
<g clip-path="url(#clip4)" clip-rule="nonzero">
<path style="fill:none;stroke-width:4;stroke-linecap:butt;stroke-linejoin:miter;stroke:rgb(100%,100%,100%);stroke-opacity:1;stroke-miterlimit:4;" d="M 145.898438 326.629688 L 145.898438 73.895313 L 85 5.2625 L 85 270.457813 Z M 145.898438 326.629688 " transform="matrix(0.1,0,0,-0.1,0,33.12)"/>
</g>
<path style="fill:none;stroke-width:4;stroke-linecap:butt;stroke-linejoin:miter;stroke:rgb(100%,100%,100%);stroke-opacity:1;stroke-miterlimit:4;" d="M 127.1875 267.332813 L 127.1875 309.832813 " transform="matrix(0.1,0,0,-0.1,0,33.12)"/>
<path style="fill:none;stroke-width:4;stroke-linecap:butt;stroke-linejoin:miter;stroke:rgb(100%,100%,100%);stroke-opacity:1;stroke-miterlimit:4;" d="M 127.1875 181.317188 L 127.1875 223.817188 " transform="matrix(0.1,0,0,-0.1,0,33.12)"/>
<path style="fill:none;stroke-width:4;stroke-linecap:butt;stroke-linejoin:miter;stroke:rgb(100%,100%,100%);stroke-opacity:1;stroke-miterlimit:4;" d="M 127.1875 95.2625 L 127.1875 137.7625 " transform="matrix(0.1,0,0,-0.1,0,33.12)"/>
<path style=" stroke:none;fill-rule:nonzero;fill:rgb(3.115845%,49.784851%,74.839783%);fill-opacity:1;" d="M 14.589844 21.515625 L 8.5 28.171875 "/>
<g clip-path="url(#clip5)" clip-rule="nonzero">
<path style="fill:none;stroke-width:4;stroke-linecap:butt;stroke-linejoin:miter;stroke:rgb(100%,100%,100%);stroke-opacity:1;stroke-miterlimit:4;" d="M 145.898438 116.04375 L 85 49.48125 " transform="matrix(0.1,0,0,-0.1,0,33.12)"/>
</g>
<path style=" stroke:none;fill-rule:nonzero;fill:rgb(3.115845%,49.784851%,74.839783%);fill-opacity:1;" d="M 14.589844 17.304688 L 8.5 23.753906 "/>
<g clip-path="url(#clip6)" clip-rule="nonzero">
<path style="fill:none;stroke-width:4;stroke-linecap:butt;stroke-linejoin:miter;stroke:rgb(100%,100%,100%);stroke-opacity:1;stroke-miterlimit:4;" d="M 145.898438 158.153125 L 85 93.660938 " transform="matrix(0.1,0,0,-0.1,0,33.12)"/>
</g>
<path style=" stroke:none;fill-rule:nonzero;fill:rgb(3.115845%,49.784851%,74.839783%);fill-opacity:1;" d="M 14.589844 13.09375 L 8.5 19.332031 "/>
<g clip-path="url(#clip7)" clip-rule="nonzero">
<path style="fill:none;stroke-width:4;stroke-linecap:butt;stroke-linejoin:miter;stroke:rgb(100%,100%,100%);stroke-opacity:1;stroke-miterlimit:4;" d="M 145.898438 200.2625 L 85 137.879688 " transform="matrix(0.1,0,0,-0.1,0,33.12)"/>
</g>
<path style=" stroke:none;fill-rule:nonzero;fill:rgb(3.115845%,49.784851%,74.839783%);fill-opacity:1;" d="M 14.589844 8.882812 L 8.5 14.914062 "/>
<g clip-path="url(#clip8)" clip-rule="nonzero">
<path style="fill:none;stroke-width:4;stroke-linecap:butt;stroke-linejoin:miter;stroke:rgb(100%,100%,100%);stroke-opacity:1;stroke-miterlimit:4;" d="M 145.898438 242.371875 L 85 182.059375 " transform="matrix(0.1,0,0,-0.1,0,33.12)"/>
</g>
<path style=" stroke:none;fill-rule:nonzero;fill:rgb(3.115845%,49.784851%,74.839783%);fill-opacity:1;" d="M 14.589844 4.671875 L 8.5 10.496094 "/>
<g clip-path="url(#clip9)" clip-rule="nonzero">
<path style="fill:none;stroke-width:4;stroke-linecap:butt;stroke-linejoin:miter;stroke:rgb(100%,100%,100%);stroke-opacity:1;stroke-miterlimit:4;" d="M 145.898438 284.48125 L 85 226.239063 " transform="matrix(0.1,0,0,-0.1,0,33.12)"/>
</g>
<g clip-path="url(#clip10)" clip-rule="nonzero">
<path style=" stroke:none;fill-rule:nonzero;fill:rgb(3.115845%,49.784851%,74.839783%);fill-opacity:1;" d="M 8.5 6.074219 L 14.589844 0.457031 "/>
</g>
<g clip-path="url(#clip11)" clip-rule="nonzero">
<path style="fill:none;stroke-width:4;stroke-linecap:butt;stroke-linejoin:miter;stroke:rgb(100%,100%,100%);stroke-opacity:1;stroke-miterlimit:4;" d="M 85 270.457813 L 145.898438 326.629688 " transform="matrix(0.1,0,0,-0.1,0,33.12)"/>
</g>
<path style="fill:none;stroke-width:4;stroke-linecap:butt;stroke-linejoin:miter;stroke:rgb(100%,100%,100%);stroke-opacity:1;stroke-miterlimit:4;" d="M 85 49.754688 L 5.742188 49.754688 " transform="matrix(0.1,0,0,-0.1,0,33.12)"/>
<path style="fill:none;stroke-width:4;stroke-linecap:butt;stroke-linejoin:miter;stroke:rgb(100%,100%,100%);stroke-opacity:1;stroke-miterlimit:4;" d="M 85 93.895313 L 5.742188 93.895313 " transform="matrix(0.1,0,0,-0.1,0,33.12)"/>
<path style="fill:none;stroke-width:4;stroke-linecap:butt;stroke-linejoin:miter;stroke:rgb(100%,100%,100%);stroke-opacity:1;stroke-miterlimit:4;" d="M 85 138.035938 L 5.742188 138.035938 " transform="matrix(0.1,0,0,-0.1,0,33.12)"/>
<path style="fill:none;stroke-width:4;stroke-linecap:butt;stroke-linejoin:miter;stroke:rgb(100%,100%,100%);stroke-opacity:1;stroke-miterlimit:4;" d="M 85 182.176563 L 5.742188 182.176563 " transform="matrix(0.1,0,0,-0.1,0,33.12)"/>
<path style="fill:none;stroke-width:4;stroke-linecap:butt;stroke-linejoin:miter;stroke:rgb(100%,100%,100%);stroke-opacity:1;stroke-miterlimit:4;" d="M 85 226.35625 L 5.742188 226.35625 " transform="matrix(0.1,0,0,-0.1,0,33.12)"/>
<path style="fill:none;stroke-width:4;stroke-linecap:butt;stroke-linejoin:miter;stroke:rgb(100%,100%,100%);stroke-opacity:1;stroke-miterlimit:4;" d="M 106.5625 29.6375 L 106.5625 72.332813 " transform="matrix(0.1,0,0,-0.1,0,33.12)"/>
<path style="fill:none;stroke-width:4;stroke-linecap:butt;stroke-linejoin:miter;stroke:rgb(100%,100%,100%);stroke-opacity:1;stroke-miterlimit:4;" d="M 106.5625 116.942188 L 106.5625 159.6375 " transform="matrix(0.1,0,0,-0.1,0,33.12)"/>
<path style="fill:none;stroke-width:4;stroke-linecap:butt;stroke-linejoin:miter;stroke:rgb(100%,100%,100%);stroke-opacity:1;stroke-miterlimit:4;" d="M 106.5625 203.3875 L 106.5625 246.082813 " transform="matrix(0.1,0,0,-0.1,0,33.12)"/>
</g>
</svg>
