<?xml version="1.0" encoding="UTF-8"?>
<svg xmlns="http://www.w3.org/2000/svg" xmlns:xlink="http://www.w3.org/1999/xlink" width="42.87pt" height="21.57pt" viewBox="0 0 42.87 21.57" version="1.1">
<g id="surface1">
<path style=" stroke:none;fill-rule:nonzero;fill:rgb(0.784302%,42.352295%,60.78186%);fill-opacity:1;" d="M 37.582031 10.382812 L 42.550781 0.195312 L 8.140625 0.195312 L 0.402344 10.382812 L 37.582031 10.382812 "/>
<path style="fill:none;stroke-width:4;stroke-linecap:butt;stroke-linejoin:miter;stroke:rgb(100%,100%,100%);stroke-opacity:1;stroke-miterlimit:4;" d="M 375.820312 111.871875 L 425.507812 213.746875 L 81.40625 213.746875 L 4.023438 111.871875 Z M 375.820312 111.871875 " transform="matrix(0.1,0,0,-0.1,0,21.57)"/>
<path style=" stroke:none;fill-rule:nonzero;fill:rgb(0.784302%,42.352295%,60.78186%);fill-opacity:1;" d="M 42.550781 9.441406 L 42.550781 0.195312 L 37.582031 10.382812 L 37.582031 21.371094 L 42.550781 9.441406 "/>
<path style="fill:none;stroke-width:4;stroke-linecap:butt;stroke-linejoin:miter;stroke:rgb(100%,100%,100%);stroke-opacity:1;stroke-miterlimit:4;" d="M 425.507812 121.285937 L 425.507812 213.746875 L 375.820312 111.871875 L 375.820312 1.989062 Z M 425.507812 121.285937 " transform="matrix(0.1,0,0,-0.1,0,21.57)"/>
<path style=" stroke:none;fill-rule:nonzero;fill:rgb(0.784302%,42.352295%,60.78186%);fill-opacity:1;" d="M 37.582031 21.371094 L 37.582031 10.382812 L 0.398438 10.382812 L 0.410156 21.371094 L 37.582031 21.371094 "/>
<path style="fill:none;stroke-width:4;stroke-linecap:butt;stroke-linejoin:miter;stroke:rgb(100%,100%,100%);stroke-opacity:1;stroke-miterlimit:4;" d="M 375.820312 1.989062 L 375.820312 111.871875 L 3.984375 111.871875 L 4.101562 1.989062 Z M 375.820312 1.989062 " transform="matrix(0.1,0,0,-0.1,0,21.57)"/>
<path style="fill-rule:nonzero;fill:rgb(0.784302%,42.352295%,60.78186%);fill-opacity:1;stroke-width:4;stroke-linecap:butt;stroke-linejoin:miter;stroke:rgb(100%,100%,100%);stroke-opacity:1;stroke-miterlimit:4;" d="M 43.203125 18.98125 L 65.703125 18.98125 L 65.703125 41.48125 L 43.203125 41.48125 Z M 43.203125 18.98125 " transform="matrix(0.1,0,0,-0.1,0,21.57)"/>
<path style="fill-rule:nonzero;fill:rgb(0.784302%,42.352295%,60.78186%);fill-opacity:1;stroke-width:4;stroke-linecap:butt;stroke-linejoin:miter;stroke:rgb(100%,100%,100%);stroke-opacity:1;stroke-miterlimit:4;" d="M 75.703125 18.98125 L 98.203125 18.98125 L 98.203125 41.48125 L 75.703125 41.48125 Z M 75.703125 18.98125 " transform="matrix(0.1,0,0,-0.1,0,21.57)"/>
<path style="fill-rule:nonzero;fill:rgb(0.784302%,42.352295%,60.78186%);fill-opacity:1;stroke-width:4;stroke-linecap:butt;stroke-linejoin:miter;stroke:rgb(100%,100%,100%);stroke-opacity:1;stroke-miterlimit:4;" d="M 108.203125 18.98125 L 130.703125 18.98125 L 130.703125 41.48125 L 108.203125 41.48125 Z M 108.203125 18.98125 " transform="matrix(0.1,0,0,-0.1,0,21.57)"/>
<path style="fill-rule:nonzero;fill:rgb(0.784302%,42.352295%,60.78186%);fill-opacity:1;stroke-width:4;stroke-linecap:butt;stroke-linejoin:miter;stroke:rgb(100%,100%,100%);stroke-opacity:1;stroke-miterlimit:4;" d="M 140.703125 18.98125 L 163.203125 18.98125 L 163.203125 41.48125 L 140.703125 41.48125 Z M 140.703125 18.98125 " transform="matrix(0.1,0,0,-0.1,0,21.57)"/>
<path style="fill-rule:nonzero;fill:rgb(0.784302%,42.352295%,60.78186%);fill-opacity:1;stroke-width:4;stroke-linecap:butt;stroke-linejoin:miter;stroke:rgb(100%,100%,100%);stroke-opacity:1;stroke-miterlimit:4;" d="M 173.203125 18.98125 L 195.703125 18.98125 L 195.703125 41.48125 L 173.203125 41.48125 Z M 173.203125 18.98125 " transform="matrix(0.1,0,0,-0.1,0,21.57)"/>
<path style="fill-rule:nonzero;fill:rgb(0.784302%,42.352295%,60.78186%);fill-opacity:1;stroke-width:4;stroke-linecap:butt;stroke-linejoin:miter;stroke:rgb(100%,100%,100%);stroke-opacity:1;stroke-miterlimit:4;" d="M 205.703125 18.98125 L 228.203125 18.98125 L 228.203125 41.48125 L 205.703125 41.48125 Z M 205.703125 18.98125 " transform="matrix(0.1,0,0,-0.1,0,21.57)"/>
<path style="fill-rule:nonzero;fill:rgb(0.784302%,42.352295%,60.78186%);fill-opacity:1;stroke-width:4;stroke-linecap:butt;stroke-linejoin:miter;stroke:rgb(100%,100%,100%);stroke-opacity:1;stroke-miterlimit:4;" d="M 238.203125 18.98125 L 260.703125 18.98125 L 260.703125 41.48125 L 238.203125 41.48125 Z M 238.203125 18.98125 " transform="matrix(0.1,0,0,-0.1,0,21.57)"/>
<path style="fill-rule:nonzero;fill:rgb(0.784302%,42.352295%,60.78186%);fill-opacity:1;stroke-width:4;stroke-linecap:butt;stroke-linejoin:miter;stroke:rgb(100%,100%,100%);stroke-opacity:1;stroke-miterlimit:4;" d="M 270.703125 18.98125 L 293.203125 18.98125 L 293.203125 41.48125 L 270.703125 41.48125 Z M 270.703125 18.98125 " transform="matrix(0.1,0,0,-0.1,0,21.57)"/>
<path style="fill-rule:nonzero;fill:rgb(0.784302%,42.352295%,60.78186%);fill-opacity:1;stroke-width:4;stroke-linecap:butt;stroke-linejoin:miter;stroke:rgb(100%,100%,100%);stroke-opacity:1;stroke-miterlimit:4;" d="M 303.203125 18.98125 L 325.703125 18.98125 L 325.703125 41.48125 L 303.203125 41.48125 Z M 303.203125 18.98125 " transform="matrix(0.1,0,0,-0.1,0,21.57)"/>
<path style=" stroke:none;fill-rule:nonzero;fill:rgb(100%,100%,100%);fill-opacity:1;" d="M 31.632812 4.835938 L 32.796875 3.449219 L 35.277344 5.019531 L 30.332031 6.402344 L 31.355469 5.28125 L 21.484375 5.28125 L 21.832031 4.835938 L 31.632812 4.835938 "/>
<path style=" stroke:none;fill-rule:nonzero;fill:rgb(100%,100%,100%);fill-opacity:1;" d="M 22.421875 4.828125 L 22.136719 5.285156 L 12.335938 5.285156 L 11.296875 6.285156 L 8.640625 5.011719 L 13.980469 3.332031 L 12.625 4.828125 L 22.421875 4.828125 "/>
</g>
</svg>
