<?xml version="1.0" encoding="UTF-8"?>
<svg xmlns="http://www.w3.org/2000/svg" xmlns:xlink="http://www.w3.org/1999/xlink" width="48.81pt" height="35.9pt" viewBox="0 0 48.81 35.9" version="1.1">
<g id="surface1">
<path style="fill-rule:nonzero;fill:rgb(3.115845%,49.784851%,74.839783%);fill-opacity:1;stroke-width:4;stroke-linecap:butt;stroke-linejoin:miter;stroke:rgb(100%,100%,100%);stroke-opacity:1;stroke-miterlimit:4;" d="M 6.5625 122.085938 L 363.75 122.085938 L 363.75 238.0625 L 6.5625 238.0625 Z M 6.5625 122.085938 " transform="matrix(0.1,0,0,-0.1,0,35.9)"/>
<path style=" stroke:none;fill-rule:nonzero;fill:rgb(3.115845%,49.784851%,74.839783%);fill-opacity:1;" d="M 0.5625 12.152344 L 14.992188 0.460938 L 48.324219 0.460938 L 36.34375 12.152344 L 0.5625 12.152344 "/>
<path style="fill:none;stroke-width:4;stroke-linecap:butt;stroke-linejoin:miter;stroke:rgb(100%,100%,100%);stroke-opacity:1;stroke-miterlimit:4;" d="M 5.625 237.476562 L 149.921875 354.390625 L 483.242188 354.390625 L 363.4375 237.476562 Z M 5.625 237.476562 " transform="matrix(0.1,0,0,-0.1,0,35.9)"/>
<path style=" stroke:none;fill-rule:nonzero;fill:rgb(3.115845%,49.784851%,74.839783%);fill-opacity:1;" d="M 36.355469 24.054688 L 48.289062 11.164062 L 48.296875 0.480469 L 36.355469 12.136719 L 36.355469 24.054688 "/>
<path style="fill:none;stroke-width:4;stroke-linecap:butt;stroke-linejoin:miter;stroke:rgb(100%,100%,100%);stroke-opacity:1;stroke-miterlimit:4;" d="M 363.554688 118.453125 L 482.890625 247.359375 L 482.96875 354.195312 L 363.554688 237.632812 Z M 363.554688 118.453125 " transform="matrix(0.1,0,0,-0.1,0,35.9)"/>
<path style=" stroke:none;fill-rule:nonzero;fill:rgb(100%,100%,100%);fill-opacity:1;" d="M 21.503906 9.109375 L 20.808594 9.679688 L 11.902344 9.679688 L 11.011719 10.566406 L 8.597656 9.515625 L 13.453125 8.125 L 12.59375 9.109375 L 21.503906 9.109375 "/>
<path style=" stroke:none;fill-rule:nonzero;fill:rgb(100%,100%,100%);fill-opacity:1;" d="M 28.503906 4.734375 L 27.808594 5.304688 L 18.902344 5.304688 L 18.011719 6.191406 L 15.597656 5.140625 L 20.453125 3.75 L 19.59375 4.734375 L 28.503906 4.734375 "/>
<path style=" stroke:none;fill-rule:nonzero;fill:rgb(100%,100%,100%);fill-opacity:1;" d="M 23.074219 7.566406 L 23.765625 6.996094 L 32.675781 6.996094 L 33.5625 6.109375 L 35.976562 7.160156 L 31.121094 8.550781 L 31.980469 7.566406 L 23.074219 7.566406 "/>
<path style=" stroke:none;fill-rule:nonzero;fill:rgb(100%,100%,100%);fill-opacity:1;" d="M 27.699219 3.191406 L 28.390625 2.621094 L 37.300781 2.621094 L 38.1875 1.734375 L 40.601562 2.785156 L 35.746094 4.175781 L 36.605469 3.191406 L 27.699219 3.191406 "/>
<path style="fill-rule:nonzero;fill:rgb(3.115845%,49.784851%,74.839783%);fill-opacity:1;stroke-width:4;stroke-linecap:butt;stroke-linejoin:miter;stroke:rgb(100%,100%,100%);stroke-opacity:1;stroke-miterlimit:4;" d="M 6.5625 8.765625 L 363.75 8.765625 L 363.75 124.703125 L 6.5625 124.703125 Z M 6.5625 8.765625 " transform="matrix(0.1,0,0,-0.1,0,35.9)"/>
<path style=" stroke:none;fill-rule:nonzero;fill:rgb(3.115845%,49.784851%,74.839783%);fill-opacity:1;" d="M 36.355469 35.390625 L 48.289062 22.496094 L 48.296875 11.8125 L 36.355469 23.46875 L 36.355469 35.390625 "/>
<path style="fill:none;stroke-width:4;stroke-linecap:butt;stroke-linejoin:miter;stroke:rgb(100%,100%,100%);stroke-opacity:1;stroke-miterlimit:4;" d="M 363.554688 5.09375 L 482.890625 134.039062 L 482.96875 240.875 L 363.554688 124.3125 Z M 363.554688 5.09375 " transform="matrix(0.1,0,0,-0.1,0,35.9)"/>
<path style=" stroke:none;fill-rule:nonzero;fill:rgb(100%,100%,100%);fill-opacity:1;" d="M 14.296875 17.582031 L 7.613281 17.582031 L 7.613281 16.96875 L 5.09375 17.871094 L 7.613281 18.773438 L 7.613281 18.164062 L 14.296875 18.164062 L 14.296875 17.582031 "/>
<path style=" stroke:none;fill-rule:nonzero;fill:rgb(100%,100%,100%);fill-opacity:1;" d="M 18.078125 19.5 L 18.078125 21.871094 L 16.347656 21.871094 L 18.894531 22.765625 L 21.4375 21.871094 L 19.714844 21.871094 L 19.714844 19.5 L 18.078125 19.5 "/>
<path style=" stroke:none;fill-rule:nonzero;fill:rgb(100%,100%,100%);fill-opacity:1;" d="M 18.078125 16.308594 L 18.078125 13.941406 L 16.347656 13.941406 L 18.894531 13.046875 L 21.4375 13.941406 L 19.714844 13.941406 L 19.714844 16.308594 L 18.078125 16.308594 "/>
<path style=" stroke:none;fill-rule:nonzero;fill:rgb(100%,100%,100%);fill-opacity:1;" d="M 23.492188 18.164062 L 30.171875 18.164062 L 30.171875 18.773438 L 32.695312 17.871094 L 30.171875 16.96875 L 30.171875 17.582031 L 23.492188 17.582031 L 23.492188 18.164062 "/>
<path style="fill:none;stroke-width:4;stroke-linecap:butt;stroke-linejoin:miter;stroke:rgb(100%,100%,100%);stroke-opacity:1;stroke-miterlimit:4;" d="M 296.445312 142.242188 C 283.90625 137.554688 226.289062 150.445312 167.773438 171.070312 C 109.257812 191.695312 71.992188 212.203125 84.53125 216.890625 C 97.070312 221.578125 154.726562 208.6875 213.242188 188.0625 C 271.757812 167.476562 308.984375 146.929688 296.445312 142.242188 Z M 296.445312 142.242188 " transform="matrix(0.1,0,0,-0.1,0,35.9)"/>
<path style="fill:none;stroke-width:4;stroke-linecap:butt;stroke-linejoin:miter;stroke:rgb(100%,100%,100%);stroke-opacity:1;stroke-miterlimit:4;" d="M 293.125 217.242188 C 306.367188 212.789062 269.960938 192.359375 211.796875 171.617188 C 153.671875 150.875 95.820312 137.671875 82.578125 142.125 C 69.296875 146.578125 105.703125 167.007812 163.867188 187.75 C 221.992188 208.492188 279.84375 221.695312 293.125 217.242188 Z M 293.125 217.242188 " transform="matrix(0.1,0,0,-0.1,0,35.9)"/>
<path style=" stroke:none;fill-rule:nonzero;fill:rgb(74.978638%,74.523926%,74.636841%);fill-opacity:1;" d="M 21.636719 19.25 C 23.84375 18.699219 24.378906 17.621094 22.832031 16.839844 C 21.285156 16.058594 18.246094 15.867188 16.039062 16.414062 C 13.832031 16.960938 13.296875 18.042969 14.84375 18.824219 C 16.386719 19.605469 19.425781 19.796875 21.636719 19.25 "/>
</g>
</svg>
