<?xml version="1.0" encoding="UTF-8"?>
<svg xmlns="http://www.w3.org/2000/svg" xmlns:xlink="http://www.w3.org/1999/xlink" width="25.12pt" height="33.66pt" viewBox="0 0 25.12 33.66" version="1.1">
<g id="surface1">
<path style=" stroke:none;fill-rule:nonzero;fill:rgb(13.729858%,12.159729%,12.548828%);fill-opacity:1;" d="M 24.625 9.589844 L 20.515625 13.488281 L 0.597656 13.488281 L 5.757812 9.589844 L 24.625 9.589844 "/>
<path style="fill:none;stroke-width:4;stroke-linecap:round;stroke-linejoin:round;stroke:rgb(100%,100%,100%);stroke-opacity:1;stroke-miterlimit:4;" d="M 246.25 240.701563 L 205.15625 201.717188 L 5.976562 201.717188 L 57.578125 240.701563 Z M 246.25 240.701563 " transform="matrix(0.1,0,0,-0.1,0,33.66)"/>
<path style="fill-rule:nonzero;fill:rgb(3.292847%,48.298645%,73.153687%);fill-opacity:1;stroke-width:4;stroke-linecap:butt;stroke-linejoin:miter;stroke:rgb(100%,100%,100%);stroke-opacity:1;stroke-miterlimit:4;" d="M 5.976562 4.725 L 205.15625 4.725 L 205.15625 201.717188 L 5.976562 201.717188 Z M 5.976562 4.725 " transform="matrix(0.1,0,0,-0.1,0,33.66)"/>
<path style=" stroke:none;fill-rule:nonzero;fill:rgb(3.292847%,48.298645%,73.153687%);fill-opacity:1;" d="M 24.214844 29.488281 L 24.214844 9.789062 L 20.398438 13.488281 L 20.398438 33.1875 L 24.214844 29.488281 "/>
<path style="fill:none;stroke-width:4;stroke-linecap:butt;stroke-linejoin:miter;stroke:rgb(100%,100%,100%);stroke-opacity:1;stroke-miterlimit:4;" d="M 242.148438 41.717188 L 242.148438 238.709375 L 203.984375 201.717188 L 203.984375 4.725 Z M 242.148438 41.717188 " transform="matrix(0.1,0,0,-0.1,0,33.66)"/>
<path style=" stroke:none;fill-rule:nonzero;fill:rgb(100%,100%,100%);fill-opacity:1;" d="M 7.671875 22.808594 L 3.386719 22.808594 L 3.386719 21.703125 L 1.769531 23.332031 L 3.386719 24.964844 L 3.386719 23.859375 L 7.671875 23.859375 L 7.671875 22.808594 "/>
<path style=" stroke:none;fill-rule:nonzero;fill:rgb(100%,100%,100%);fill-opacity:1;" d="M 10.097656 26.28125 L 10.097656 30.570312 L 8.988281 30.570312 L 10.621094 32.1875 L 12.253906 30.570312 L 11.148438 30.570312 L 11.148438 26.28125 L 10.097656 26.28125 "/>
<path style=" stroke:none;fill-rule:nonzero;fill:rgb(100%,100%,100%);fill-opacity:1;" d="M 10.097656 20.507812 L 10.097656 16.222656 L 8.988281 16.222656 L 10.621094 14.605469 L 12.253906 16.222656 L 11.148438 16.222656 L 11.148438 20.507812 L 10.097656 20.507812 "/>
<path style=" stroke:none;fill-rule:nonzero;fill:rgb(100%,100%,100%);fill-opacity:1;" d="M 13.570312 23.859375 L 17.855469 23.859375 L 17.855469 24.964844 L 19.476562 23.332031 L 17.855469 21.703125 L 17.855469 22.808594 L 13.570312 22.808594 L 13.570312 23.859375 "/>
<path style="fill:none;stroke-width:4;stroke-linecap:butt;stroke-linejoin:miter;stroke:rgb(100%,100%,100%);stroke-opacity:1;stroke-miterlimit:4;" d="M 175.195312 34.451563 C 167.148438 25.935938 130.15625 49.295313 92.617188 86.6 C 55.078125 123.904688 31.171875 161.014063 39.21875 169.529688 C 47.265625 178.00625 84.257812 154.646875 121.796875 117.342188 C 159.335938 80.076563 183.242188 42.928125 175.195312 34.451563 Z M 175.195312 34.451563 " transform="matrix(0.1,0,0,-0.1,0,33.66)"/>
<path style="fill:none;stroke-width:4;stroke-linecap:butt;stroke-linejoin:miter;stroke:rgb(100%,100%,100%);stroke-opacity:1;stroke-miterlimit:4;" d="M 173.046875 170.154688 C 181.523438 162.107813 158.164062 125.154688 120.898438 87.615625 C 83.59375 50.076563 46.445312 26.170313 37.96875 34.217188 C 29.453125 42.264063 52.8125 79.217188 90.117188 116.75625 C 127.421875 154.295313 164.53125 178.201563 173.046875 170.154688 Z M 173.046875 170.154688 " transform="matrix(0.1,0,0,-0.1,0,33.66)"/>
<path style=" stroke:none;fill-rule:nonzero;fill:rgb(74.978638%,74.523926%,74.636841%);fill-opacity:1;" d="M 12.378906 25.824219 C 13.796875 24.832031 14.140625 22.882812 13.148438 21.46875 C 12.15625 20.050781 10.207031 19.707031 8.789062 20.699219 C 7.375 21.6875 7.03125 23.640625 8.023438 25.054688 C 9.011719 26.472656 10.964844 26.816406 12.378906 25.824219 "/>
<path style=" stroke:none;fill-rule:nonzero;fill:rgb(3.292847%,48.298645%,73.153687%);fill-opacity:1;" d="M 24.625 0.273438 L 20.515625 4.171875 L 0.597656 4.171875 L 5.757812 0.273438 L 24.625 0.273438 "/>
<path style="fill:none;stroke-width:4;stroke-linecap:butt;stroke-linejoin:miter;stroke:rgb(100%,100%,100%);stroke-opacity:1;stroke-miterlimit:4;" d="M 246.25 333.865625 L 205.15625 294.88125 L 5.976562 294.88125 L 57.578125 333.865625 Z M 246.25 333.865625 " transform="matrix(0.1,0,0,-0.1,0,33.66)"/>
<path style="fill-rule:nonzero;fill:rgb(3.292847%,48.298645%,73.153687%);fill-opacity:1;stroke-width:4;stroke-linecap:butt;stroke-linejoin:miter;stroke:rgb(100%,100%,100%);stroke-opacity:1;stroke-miterlimit:4;" d="M 5.976562 200.310938 L 205.15625 200.310938 L 205.15625 294.88125 L 5.976562 294.88125 Z M 5.976562 200.310938 " transform="matrix(0.1,0,0,-0.1,0,33.66)"/>
<path style=" stroke:none;fill-rule:nonzero;fill:rgb(3.292847%,48.298645%,73.153687%);fill-opacity:1;" d="M 24.214844 9.929688 L 24.214844 0.472656 L 20.398438 4.171875 L 20.398438 13.628906 L 24.214844 9.929688 "/>
<path style="fill:none;stroke-width:4;stroke-linecap:butt;stroke-linejoin:miter;stroke:rgb(100%,100%,100%);stroke-opacity:1;stroke-miterlimit:4;" d="M 242.148438 237.303125 L 242.148438 331.873438 L 203.984375 294.88125 L 203.984375 200.310938 Z M 242.148438 237.303125 " transform="matrix(0.1,0,0,-0.1,0,33.66)"/>
<path style=" stroke:none;fill-rule:nonzero;fill:rgb(100%,100%,100%);fill-opacity:1;" d="M 2.382812 7.660156 L 6.277344 7.660156 L 6.277344 5.628906 L 2.382812 5.628906 Z M 2.382812 7.660156 "/>
<path style=" stroke:none;fill-rule:nonzero;fill:rgb(100%,100%,100%);fill-opacity:1;" d="M 15.179688 7.660156 L 19.070312 7.660156 L 19.070312 5.628906 L 15.179688 5.628906 Z M 15.179688 7.660156 "/>
<path style=" stroke:none;fill-rule:nonzero;fill:rgb(100%,100%,100%);fill-opacity:1;" d="M 2.382812 12.726562 L 6.277344 12.726562 L 6.277344 10.699219 L 2.382812 10.699219 Z M 2.382812 12.726562 "/>
<path style=" stroke:none;fill-rule:nonzero;fill:rgb(100%,100%,100%);fill-opacity:1;" d="M 15.179688 12.726562 L 19.070312 12.726562 L 19.070312 10.699219 L 15.179688 10.699219 Z M 15.179688 12.726562 "/>
<path style="fill:none;stroke-width:4;stroke-linecap:butt;stroke-linejoin:miter;stroke:rgb(100%,100%,100%);stroke-opacity:1;stroke-miterlimit:4;" d="M 50.273438 270.154688 L 169.84375 270.154688 " transform="matrix(0.1,0,0,-0.1,0,33.66)"/>
<path style="fill:none;stroke-width:4;stroke-linecap:butt;stroke-linejoin:miter;stroke:rgb(100%,100%,100%);stroke-opacity:1;stroke-miterlimit:4;" d="M 50.273438 218.00625 L 169.84375 218.00625 " transform="matrix(0.1,0,0,-0.1,0,33.66)"/>
<path style="fill-rule:nonzero;fill:rgb(13.729858%,12.159729%,12.548828%);fill-opacity:1;stroke-width:4;stroke-linecap:butt;stroke-linejoin:miter;stroke:rgb(100%,100%,100%);stroke-opacity:1;stroke-miterlimit:4;" d="M 43.320312 219.451563 L 169.84375 270.154688 " transform="matrix(0.1,0,0,-0.1,0,33.66)"/>
<path style="fill-rule:nonzero;fill:rgb(13.729858%,12.159729%,12.548828%);fill-opacity:1;stroke-width:4;stroke-linecap:butt;stroke-linejoin:miter;stroke:rgb(100%,100%,100%);stroke-opacity:1;stroke-miterlimit:4;" d="M 43.320312 270.154688 L 169.84375 219.451563 " transform="matrix(0.1,0,0,-0.1,0,33.66)"/>
</g>
</svg>
