<?xml version="1.0" encoding="UTF-8"?>
<svg xmlns="http://www.w3.org/2000/svg" xmlns:xlink="http://www.w3.org/1999/xlink" width="25.46pt" height="31.74pt" viewBox="0 0 25.46 31.74" version="1.1">
<g id="surface1">
<path style=" stroke:none;fill-rule:nonzero;fill:rgb(3.292847%,48.298645%,73.153687%);fill-opacity:1;" d="M 25.011719 0.285156 L 22.261719 3.394531 L 0.53125 3.394531 L 4.09375 0.285156 L 25.011719 0.285156 "/>
<path style="fill:none;stroke-width:4;stroke-linecap:butt;stroke-linejoin:miter;stroke:rgb(100%,100%,100%);stroke-opacity:1;stroke-miterlimit:4;" d="M 250.117188 314.548437 L 222.617188 283.454687 L 5.3125 283.454687 L 40.9375 314.548437 Z M 250.117188 314.548437 " transform="matrix(0.1,0,0,-0.1,0,31.74)"/>
<path style=" stroke:none;fill-rule:nonzero;fill:rgb(3.292847%,48.298645%,73.153687%);fill-opacity:1;" d="M 22.261719 3.394531 L 22.261719 14.195312 L 25.007812 11.304688 L 25.007812 0.5 L 22.261719 3.394531 "/>
<path style="fill:none;stroke-width:4;stroke-linecap:butt;stroke-linejoin:miter;stroke:rgb(100%,100%,100%);stroke-opacity:1;stroke-miterlimit:4;" d="M 222.617188 283.454687 L 222.617188 175.446875 L 250.078125 204.353125 L 250.078125 312.4 Z M 222.617188 283.454687 " transform="matrix(0.1,0,0,-0.1,0,31.74)"/>
<path style=" stroke:none;fill-rule:nonzero;fill:rgb(3.292847%,48.298645%,73.153687%);fill-opacity:1;" d="M 0.53125 31.238281 L 22.261719 31.238281 L 22.261719 14.023438 L 0.53125 14.023438 Z M 0.53125 31.238281 "/>
<path style="fill:none;stroke-width:4;stroke-linecap:butt;stroke-linejoin:miter;stroke:rgb(100%,100%,100%);stroke-opacity:1;stroke-miterlimit:4;" d="M 222.617188 5.017187 L 222.617188 177.165625 L 5.3125 177.165625 L 5.3125 5.017187 " transform="matrix(0.1,0,0,-0.1,0,31.74)"/>
<path style="fill-rule:nonzero;fill:rgb(3.292847%,48.298645%,73.153687%);fill-opacity:1;stroke-width:4;stroke-linecap:butt;stroke-linejoin:miter;stroke:rgb(100%,100%,100%);stroke-opacity:1;stroke-miterlimit:4;" d="M 5.3125 176.775 L 222.617188 176.775 L 222.617188 283.454687 L 5.3125 283.454687 Z M 5.3125 176.775 " transform="matrix(0.1,0,0,-0.1,0,31.74)"/>
<path style=" stroke:none;fill-rule:nonzero;fill:rgb(3.292847%,48.298645%,73.153687%);fill-opacity:1;" d="M 25.007812 28.347656 L 25.007812 11.195312 L 22.261719 14.085938 L 22.261719 31.238281 L 25.007812 28.347656 "/>
<path style="fill:none;stroke-width:4;stroke-linecap:butt;stroke-linejoin:miter;stroke:rgb(100%,100%,100%);stroke-opacity:1;stroke-miterlimit:4;" d="M 250.078125 33.923437 L 250.078125 205.446875 L 222.617188 176.540625 L 222.617188 5.017187 Z M 250.078125 33.923437 " transform="matrix(0.1,0,0,-0.1,0,31.74)"/>
<path style=" stroke:none;fill-rule:nonzero;fill:rgb(100%,100%,100%);fill-opacity:1;" d="M 11.753906 24.640625 L 11.753906 28.398438 L 12.390625 28.398438 L 11.453125 29.816406 L 10.511719 28.398438 L 11.148438 28.398438 L 11.148438 24.640625 L 11.753906 24.640625 "/>
<path style=" stroke:none;fill-rule:nonzero;fill:rgb(100%,100%,100%);fill-opacity:1;" d="M 9.839844 24.097656 L 7.179688 26.757812 L 7.632812 27.207031 L 5.964844 27.542969 L 6.300781 25.875 L 6.753906 26.328125 L 9.410156 23.667969 L 9.839844 24.097656 "/>
<path style=" stroke:none;fill-rule:nonzero;fill:rgb(100%,100%,100%);fill-opacity:1;" d="M 8.867188 22.359375 L 5.109375 22.359375 L 5.109375 22.996094 L 3.691406 22.054688 L 5.109375 21.113281 L 5.109375 21.753906 L 8.867188 21.753906 L 8.867188 22.359375 "/>
<path style=" stroke:none;fill-rule:nonzero;fill:rgb(100%,100%,100%);fill-opacity:1;" d="M 9.410156 20.441406 L 6.753906 17.785156 L 6.300781 18.234375 L 5.964844 16.566406 L 7.632812 16.90625 L 7.179688 17.355469 L 9.839844 20.011719 L 9.410156 20.441406 "/>
<path style=" stroke:none;fill-rule:nonzero;fill:rgb(100%,100%,100%);fill-opacity:1;" d="M 11.148438 20.785156 L 11.148438 13.53125 L 10.511719 13.53125 L 11.453125 12.113281 L 12.390625 13.53125 L 11.753906 13.53125 L 11.753906 20.785156 L 11.148438 20.785156 "/>
<path style=" stroke:none;fill-rule:nonzero;fill:rgb(100%,100%,100%);fill-opacity:1;" d="M 13.066406 20.011719 L 15.722656 17.355469 L 15.273438 16.90625 L 16.941406 16.566406 L 16.601562 18.234375 L 16.152344 17.785156 L 13.496094 20.441406 L 13.066406 20.011719 "/>
<path style=" stroke:none;fill-rule:nonzero;fill:rgb(100%,100%,100%);fill-opacity:1;" d="M 14.039062 21.753906 L 17.796875 21.753906 L 17.796875 21.113281 L 19.214844 22.054688 L 17.796875 22.996094 L 17.796875 22.359375 L 14.039062 22.359375 L 14.039062 21.753906 "/>
<path style=" stroke:none;fill-rule:nonzero;fill:rgb(100%,100%,100%);fill-opacity:1;" d="M 13.496094 23.667969 L 16.152344 26.328125 L 16.601562 25.875 L 16.941406 27.542969 L 15.273438 27.207031 L 15.722656 26.757812 L 13.066406 24.097656 L 13.496094 23.667969 "/>
<path style=" stroke:none;fill-rule:nonzero;fill:rgb(100%,100%,100%);fill-opacity:1;" d="M 13.75 18.90625 C 15.511719 20.140625 15.9375 22.566406 14.707031 24.324219 C 13.472656 26.085938 11.046875 26.515625 9.289062 25.28125 C 7.527344 24.046875 7.101562 21.621094 8.332031 19.863281 C 9.566406 18.101562 11.992188 17.675781 13.75 18.90625 "/>
<path style=" stroke:none;fill-rule:nonzero;fill:rgb(100%,100%,100%);fill-opacity:1;" d="M 11.21875 6.835938 L 16.941406 6.835938 L 16.941406 6.269531 L 18.8125 7.40625 L 16.941406 8.570312 L 16.941406 8.003906 L 11.21875 8.003906 L 11.21875 6.835938 "/>
<path style=" stroke:none;fill-rule:nonzero;fill:rgb(100%,100%,100%);fill-opacity:1;" d="M 11.21875 10.394531 L 16.941406 10.394531 L 16.941406 9.828125 L 18.8125 10.964844 L 16.941406 12.128906 L 16.941406 11.5625 L 11.21875 11.5625 L 11.21875 10.394531 "/>
<path style=" stroke:none;fill-rule:nonzero;fill:rgb(100%,100%,100%);fill-opacity:1;" d="M 11.347656 5.136719 L 5.625 5.136719 L 5.625 4.566406 L 3.753906 5.703125 L 5.625 6.867188 L 5.625 6.300781 L 11.347656 6.300781 L 11.347656 5.136719 "/>
<path style=" stroke:none;fill-rule:nonzero;fill:rgb(100%,100%,100%);fill-opacity:1;" d="M 11.347656 8.691406 L 5.625 8.691406 L 5.625 8.125 L 3.753906 9.261719 L 5.625 10.425781 L 5.625 9.859375 L 11.347656 9.859375 L 11.347656 8.691406 "/>
<path style="fill:none;stroke-width:4;stroke-linecap:round;stroke-linejoin:round;stroke:rgb(100%,100%,100%);stroke-opacity:1;stroke-miterlimit:4;" d="M 221.5625 5.36875 L 6.40625 5.36875 " transform="matrix(0.1,0,0,-0.1,0,31.74)"/>
<path style="fill:none;stroke-width:4;stroke-linecap:round;stroke-linejoin:round;stroke:rgb(100%,100%,100%);stroke-opacity:1;stroke-miterlimit:4;" d="M 250.703125 314.040625 L 223.320312 284.079687 " transform="matrix(0.1,0,0,-0.1,0,31.74)"/>
<path style="fill:none;stroke-width:4;stroke-linecap:round;stroke-linejoin:round;stroke:rgb(100%,100%,100%);stroke-opacity:1;stroke-miterlimit:4;" d="M 221.5625 176.61875 L 6.40625 176.61875 " transform="matrix(0.1,0,0,-0.1,0,31.74)"/>
<path style="fill:none;stroke-width:4;stroke-linecap:round;stroke-linejoin:round;stroke:rgb(100%,100%,100%);stroke-opacity:1;stroke-miterlimit:4;" d="M 249.257812 204.079687 L 224.023438 177.673437 " transform="matrix(0.1,0,0,-0.1,0,31.74)"/>
</g>
</svg>
