<?xml version="1.0" encoding="UTF-8"?>
<svg xmlns="http://www.w3.org/2000/svg" xmlns:xlink="http://www.w3.org/1999/xlink" width="31.19pt" height="30.98pt" viewBox="0 0 31.19 30.98" version="1.1">
<defs>
<clipPath id="clip1">
  <path d="M 0 3 L 28 3 L 28 30.980469 L 0 30.980469 Z M 0 3 "/>
</clipPath>
<clipPath id="clip2">
  <path d="M 27 0 L 31 0 L 31 30.980469 L 27 30.980469 Z M 27 0 "/>
</clipPath>
<clipPath id="clip3">
  <path d="M 25 0 L 31 0 L 31 30.980469 L 25 30.980469 Z M 25 0 "/>
</clipPath>
<clipPath id="clip4">
  <path d="M 0 0 L 31 0 L 31 6 L 0 6 Z M 0 0 "/>
</clipPath>
<clipPath id="clip5">
  <path d="M 25 0 L 31 0 L 31 7 L 25 7 Z M 25 0 "/>
</clipPath>
<clipPath id="clip6">
  <path d="M 27 3 L 28 3 L 28 30.980469 L 27 30.980469 Z M 27 3 "/>
</clipPath>
<clipPath id="clip7">
  <path d="M 25 0 L 31 0 L 31 7 L 25 7 Z M 25 0 "/>
</clipPath>
</defs>
<g id="surface1">
<g clip-path="url(#clip1)" clip-rule="nonzero">
<path style="fill-rule:nonzero;fill:rgb(3.115845%,49.784851%,74.839783%);fill-opacity:1;stroke-width:4;stroke-linecap:butt;stroke-linejoin:miter;stroke:rgb(100%,100%,100%);stroke-opacity:1;stroke-miterlimit:4;" d="M 6.210938 4.8 L 273.28125 4.8 L 273.28125 271.635937 L 6.210938 271.635937 Z M 6.210938 4.8 " transform="matrix(0.1,0,0,-0.1,0,30.98)"/>
</g>
<g clip-path="url(#clip2)" clip-rule="nonzero">
<path style=" stroke:none;fill-rule:nonzero;fill:rgb(3.115845%,49.784851%,74.839783%);fill-opacity:1;" d="M 30.699219 27.160156 L 30.699219 0.476562 L 27.328125 3.816406 L 27.328125 30.5 L 30.699219 27.160156 "/>
</g>
<g clip-path="url(#clip3)" clip-rule="nonzero">
<path style="fill:none;stroke-width:4;stroke-linecap:butt;stroke-linejoin:miter;stroke:rgb(100%,100%,100%);stroke-opacity:1;stroke-miterlimit:4;" d="M 306.992188 38.198437 L 306.992188 305.034375 L 273.28125 271.635937 L 273.28125 4.8 Z M 306.992188 38.198437 " transform="matrix(0.1,0,0,-0.1,0,30.98)"/>
</g>
<path style=" stroke:none;fill-rule:nonzero;fill:rgb(3.115845%,49.784851%,74.839783%);fill-opacity:1;" d="M 5.261719 0.285156 L 0.621094 3.625 L 27.328125 3.625 L 30.699219 0.285156 L 5.261719 0.285156 "/>
<g clip-path="url(#clip4)" clip-rule="nonzero">
<path style="fill:none;stroke-width:4;stroke-linecap:butt;stroke-linejoin:miter;stroke:rgb(100%,100%,100%);stroke-opacity:1;stroke-miterlimit:4;" d="M 52.617188 306.948437 L 6.210938 273.55 L 273.28125 273.55 L 306.992188 306.948437 Z M 52.617188 306.948437 " transform="matrix(0.1,0,0,-0.1,0,30.98)"/>
</g>
<path style="fill:none;stroke-width:4;stroke-linecap:butt;stroke-linejoin:miter;stroke:rgb(100%,100%,100%);stroke-opacity:1;stroke-miterlimit:4;" d="M 273.28125 271.635937 L 6.210938 271.635937 " transform="matrix(0.1,0,0,-0.1,0,30.98)"/>
<path style=" stroke:none;fill-rule:nonzero;fill:rgb(3.115845%,49.784851%,74.839783%);fill-opacity:1;" d="M 27.328125 3.816406 L 30.699219 0.476562 "/>
<g clip-path="url(#clip5)" clip-rule="nonzero">
<path style="fill:none;stroke-width:4;stroke-linecap:butt;stroke-linejoin:miter;stroke:rgb(100%,100%,100%);stroke-opacity:1;stroke-miterlimit:4;" d="M 273.28125 271.635937 L 306.992188 305.034375 " transform="matrix(0.1,0,0,-0.1,0,30.98)"/>
</g>
<g clip-path="url(#clip6)" clip-rule="nonzero">
<path style="fill:none;stroke-width:4;stroke-linecap:butt;stroke-linejoin:miter;stroke:rgb(100%,100%,100%);stroke-opacity:1;stroke-miterlimit:4;" d="M 273.28125 271.635937 L 273.28125 4.8 " transform="matrix(0.1,0,0,-0.1,0,30.98)"/>
</g>
<path style="fill:none;stroke-width:4;stroke-linecap:butt;stroke-linejoin:miter;stroke:rgb(100%,100%,100%);stroke-opacity:1;stroke-miterlimit:4;" d="M 273.28125 271.635937 L 6.210938 271.635937 " transform="matrix(0.1,0,0,-0.1,0,30.98)"/>
<path style=" stroke:none;fill-rule:nonzero;fill:rgb(3.115845%,49.784851%,74.839783%);fill-opacity:1;" d="M 27.328125 3.816406 L 30.699219 0.476562 "/>
<g clip-path="url(#clip7)" clip-rule="nonzero">
<path style="fill:none;stroke-width:4;stroke-linecap:butt;stroke-linejoin:miter;stroke:rgb(100%,100%,100%);stroke-opacity:1;stroke-miterlimit:4;" d="M 273.28125 271.635937 L 306.992188 305.034375 " transform="matrix(0.1,0,0,-0.1,0,30.98)"/>
</g>
<path style=" stroke:none;fill-rule:nonzero;fill:rgb(100%,100%,100%);fill-opacity:1;" d="M 14.550781 13.277344 L 14.550781 7.507812 L 15.53125 7.507812 L 14.085938 5.328125 L 12.640625 7.507812 L 13.621094 7.507812 L 13.621094 13.277344 L 14.550781 13.277344 "/>
<path style=" stroke:none;fill-rule:nonzero;fill:rgb(100%,100%,100%);fill-opacity:1;" d="M 11.605469 14.113281 L 7.523438 10.03125 L 8.21875 9.339844 L 5.65625 8.820312 L 6.171875 11.382812 L 6.863281 10.691406 L 10.949219 14.773438 L 11.605469 14.113281 "/>
<path style=" stroke:none;fill-rule:nonzero;fill:rgb(100%,100%,100%);fill-opacity:1;" d="M 10.113281 16.785156 L 4.339844 16.785156 L 4.339844 15.804688 L 2.160156 17.25 L 4.339844 18.695312 L 4.339844 17.71875 L 10.113281 17.71875 L 10.113281 16.785156 "/>
<path style=" stroke:none;fill-rule:nonzero;fill:rgb(100%,100%,100%);fill-opacity:1;" d="M 10.949219 19.730469 L 6.863281 23.8125 L 6.171875 23.121094 L 5.65625 25.683594 L 8.21875 25.164062 L 7.523438 24.472656 L 11.605469 20.390625 L 10.949219 19.730469 "/>
<path style=" stroke:none;fill-rule:nonzero;fill:rgb(100%,100%,100%);fill-opacity:1;" d="M 13.621094 21.222656 L 13.621094 26.996094 L 12.640625 26.996094 L 14.085938 29.175781 L 15.53125 26.996094 L 14.550781 26.996094 L 14.550781 21.222656 L 13.621094 21.222656 "/>
<path style=" stroke:none;fill-rule:nonzero;fill:rgb(100%,100%,100%);fill-opacity:1;" d="M 16.566406 20.390625 L 20.648438 24.472656 L 19.957031 25.164062 L 22.519531 25.683594 L 22 23.121094 L 21.304688 23.8125 L 17.222656 19.730469 L 16.566406 20.390625 "/>
<path style=" stroke:none;fill-rule:nonzero;fill:rgb(100%,100%,100%);fill-opacity:1;" d="M 18.058594 17.71875 L 23.832031 17.71875 L 23.832031 18.695312 L 26.011719 17.25 L 23.832031 15.804688 L 23.832031 16.785156 L 18.058594 16.785156 L 18.058594 17.71875 "/>
<path style=" stroke:none;fill-rule:nonzero;fill:rgb(100%,100%,100%);fill-opacity:1;" d="M 17.222656 14.773438 L 21.304688 10.691406 L 22 11.382812 L 22.519531 8.820312 L 19.957031 9.339844 L 20.648438 10.03125 L 16.566406 14.113281 L 17.222656 14.773438 "/>
<path style=" stroke:none;fill-rule:nonzero;fill:rgb(100%,100%,100%);fill-opacity:1;" d="M 17.628906 22.136719 C 20.351562 20.230469 21.015625 16.476562 19.105469 13.753906 C 17.203125 11.027344 13.445312 10.367188 10.722656 12.273438 C 8 14.179688 7.335938 17.9375 9.242188 20.660156 C 11.152344 23.382812 14.90625 24.046875 17.628906 22.136719 "/>
<path style="fill:none;stroke-width:4;stroke-linecap:butt;stroke-linejoin:miter;stroke:rgb(3.115845%,49.784851%,74.839783%);stroke-opacity:1;stroke-miterlimit:4;" d="M 176.289062 88.432812 C 203.515625 107.495312 210.15625 145.034375 191.054688 172.260937 C 172.03125 199.526562 134.453125 206.128125 107.226562 187.065625 C 80 168.003125 73.359375 130.425 92.421875 103.198437 C 111.523438 75.971875 149.0625 69.33125 176.289062 88.432812 Z M 176.289062 88.432812 " transform="matrix(0.1,0,0,-0.1,0,30.98)"/>
</g>
</svg>
