<?xml version="1.0" encoding="UTF-8"?>
<svg xmlns="http://www.w3.org/2000/svg" xmlns:xlink="http://www.w3.org/1999/xlink" width="31.35pt" height="41.96pt" viewBox="0 0 31.35 41.96" version="1.1">
<g id="surface1">
<path style="fill-rule:nonzero;fill:rgb(3.292847%,48.298645%,73.153687%);fill-opacity:1;stroke-width:4;stroke-linecap:butt;stroke-linejoin:miter;stroke:rgb(100%,100%,100%);stroke-opacity:1;stroke-miterlimit:4;" d="M 6.445312 4.795313 L 274.726562 4.795313 L 274.726562 272.803125 L 6.445312 272.803125 Z M 6.445312 4.795313 " transform="matrix(0.1,0,0,-0.1,0,41.96)"/>
<path style=" stroke:none;fill-rule:nonzero;fill:rgb(3.292847%,48.298645%,73.153687%);fill-opacity:1;" d="M 30.859375 38.125 L 30.859375 11.324219 L 27.472656 14.679688 L 27.472656 41.480469 L 30.859375 38.125 "/>
<path style="fill:none;stroke-width:4;stroke-linecap:butt;stroke-linejoin:miter;stroke:rgb(100%,100%,100%);stroke-opacity:1;stroke-miterlimit:4;" d="M 308.59375 38.35 L 308.59375 306.357813 L 274.726562 272.803125 L 274.726562 4.795313 Z M 308.59375 38.35 " transform="matrix(0.1,0,0,-0.1,0,41.96)"/>
<path style=" stroke:none;fill-rule:nonzero;fill:rgb(3.292847%,48.298645%,73.153687%);fill-opacity:1;" d="M 5.550781 0.480469 L 0.644531 3.835938 L 27.472656 3.835938 L 30.859375 0.480469 L 5.550781 0.480469 "/>
<path style="fill:none;stroke-width:4;stroke-linecap:butt;stroke-linejoin:miter;stroke:rgb(100%,100%,100%);stroke-opacity:1;stroke-miterlimit:4;" d="M 55.507812 414.795313 L 6.445312 381.240625 L 274.726562 381.240625 L 308.59375 414.795313 Z M 55.507812 414.795313 " transform="matrix(0.1,0,0,-0.1,0,41.96)"/>
<path style="fill-rule:nonzero;fill:rgb(3.292847%,48.298645%,73.153687%);fill-opacity:1;stroke-width:4;stroke-linecap:butt;stroke-linejoin:miter;stroke:rgb(100%,100%,100%);stroke-opacity:1;stroke-miterlimit:4;" d="M 6.445312 272.803125 L 274.726562 272.803125 L 274.726562 381.240625 L 6.445312 381.240625 Z M 6.445312 272.803125 " transform="matrix(0.1,0,0,-0.1,0,41.96)"/>
<path style=" stroke:none;fill-rule:nonzero;fill:rgb(3.292847%,48.298645%,73.153687%);fill-opacity:1;" d="M 30.859375 11.324219 L 30.859375 0.480469 L 27.472656 3.835938 L 27.472656 14.679688 L 30.859375 11.324219 "/>
<path style="fill:none;stroke-width:4;stroke-linecap:butt;stroke-linejoin:miter;stroke:rgb(100%,100%,100%);stroke-opacity:1;stroke-miterlimit:4;" d="M 308.59375 306.357813 L 308.59375 414.795313 L 274.726562 381.240625 L 274.726562 272.803125 Z M 308.59375 306.357813 " transform="matrix(0.1,0,0,-0.1,0,41.96)"/>
<path style="fill-rule:nonzero;fill:rgb(3.292847%,48.298645%,73.153687%);fill-opacity:1;stroke-width:4;stroke-linecap:butt;stroke-linejoin:miter;stroke:rgb(100%,100%,100%);stroke-opacity:1;stroke-miterlimit:4;" d="M 274.726562 272.803125 L 308.59375 306.357813 " transform="matrix(0.1,0,0,-0.1,0,41.96)"/>
<path style=" stroke:none;fill-rule:nonzero;fill:rgb(100%,100%,100%);fill-opacity:1;" d="M 5.023438 7.527344 L 9.351562 7.527344 L 9.351562 5.292969 L 5.023438 5.292969 Z M 5.023438 7.527344 "/>
<path style=" stroke:none;fill-rule:nonzero;fill:rgb(100%,100%,100%);fill-opacity:1;" d="M 19.238281 7.527344 L 23.566406 7.527344 L 23.566406 5.292969 L 19.238281 5.292969 Z M 19.238281 7.527344 "/>
<path style=" stroke:none;fill-rule:nonzero;fill:rgb(100%,100%,100%);fill-opacity:1;" d="M 5.023438 13.15625 L 9.351562 13.15625 L 9.351562 10.902344 L 5.023438 10.902344 Z M 5.023438 13.15625 "/>
<path style=" stroke:none;fill-rule:nonzero;fill:rgb(100%,100%,100%);fill-opacity:1;" d="M 19.238281 13.15625 L 23.566406 13.15625 L 23.566406 10.902344 L 19.238281 10.902344 Z M 19.238281 13.15625 "/>
<path style="fill:none;stroke-width:4;stroke-linecap:butt;stroke-linejoin:miter;stroke:rgb(100%,100%,100%);stroke-opacity:1;stroke-miterlimit:4;" d="M 79.570312 355.498438 L 212.460938 355.498438 " transform="matrix(0.1,0,0,-0.1,0,41.96)"/>
<path style="fill:none;stroke-width:4;stroke-linecap:butt;stroke-linejoin:miter;stroke:rgb(100%,100%,100%);stroke-opacity:1;stroke-miterlimit:4;" d="M 79.570312 299.326563 L 212.460938 299.326563 " transform="matrix(0.1,0,0,-0.1,0,41.96)"/>
<path style="fill-rule:nonzero;fill:rgb(13.729858%,12.159729%,12.548828%);fill-opacity:1;stroke-width:4;stroke-linecap:butt;stroke-linejoin:miter;stroke:rgb(100%,100%,100%);stroke-opacity:1;stroke-miterlimit:4;" d="M 71.875 299.326563 L 212.460938 355.498438 " transform="matrix(0.1,0,0,-0.1,0,41.96)"/>
<path style="fill-rule:nonzero;fill:rgb(13.729858%,12.159729%,12.548828%);fill-opacity:1;stroke-width:4;stroke-linecap:butt;stroke-linejoin:miter;stroke:rgb(100%,100%,100%);stroke-opacity:1;stroke-miterlimit:4;" d="M 71.875 355.498438 L 212.460938 299.326563 " transform="matrix(0.1,0,0,-0.1,0,41.96)"/>
<path style=" stroke:none;fill-rule:nonzero;fill:rgb(100%,100%,100%);fill-opacity:1;" d="M 9.050781 26.742188 L 9.050781 24.484375 L 9.433594 24.484375 L 8.871094 23.632812 L 8.304688 24.484375 L 8.6875 24.484375 L 8.6875 26.742188 L 9.050781 26.742188 "/>
<path style=" stroke:none;fill-rule:nonzero;fill:rgb(100%,100%,100%);fill-opacity:1;" d="M 7.902344 27.066406 L 6.304688 25.472656 L 6.574219 25.199219 L 5.570312 25 L 5.773438 26 L 6.046875 25.730469 L 7.644531 27.324219 L 7.902344 27.066406 "/>
<path style=" stroke:none;fill-rule:nonzero;fill:rgb(100%,100%,100%);fill-opacity:1;" d="M 7.316406 28.113281 L 5.058594 28.113281 L 5.058594 27.730469 L 4.207031 28.296875 L 5.058594 28.863281 L 5.058594 28.480469 L 7.316406 28.480469 L 7.316406 28.113281 "/>
<path style=" stroke:none;fill-rule:nonzero;fill:rgb(100%,100%,100%);fill-opacity:1;" d="M 7.644531 29.265625 L 6.046875 30.863281 L 5.773438 30.589844 L 5.570312 31.597656 L 6.574219 31.390625 L 6.304688 31.121094 L 7.902344 29.523438 L 7.644531 29.265625 "/>
<path style=" stroke:none;fill-rule:nonzero;fill:rgb(100%,100%,100%);fill-opacity:1;" d="M 8.6875 29.851562 L 8.6875 32.109375 L 8.304688 32.109375 L 8.871094 32.957031 L 9.433594 32.109375 L 9.050781 32.109375 L 9.050781 29.851562 L 8.6875 29.851562 "/>
<path style=" stroke:none;fill-rule:nonzero;fill:rgb(100%,100%,100%);fill-opacity:1;" d="M 10.097656 27.324219 L 11.695312 25.730469 L 11.964844 26 L 12.167969 25 L 11.164062 25.199219 L 11.4375 25.472656 L 9.839844 27.066406 L 10.097656 27.324219 "/>
<path style=" stroke:none;fill-rule:nonzero;fill:rgb(100%,100%,100%);fill-opacity:1;" d="M 10.25 30.1875 C 11.308594 29.445312 11.566406 27.992188 10.824219 26.933594 C 10.085938 25.875 8.628906 25.617188 7.570312 26.359375 C 6.511719 27.097656 6.253906 28.558594 6.996094 29.613281 C 7.734375 30.671875 9.195312 30.929688 10.25 30.1875 "/>
<path style=" stroke:none;fill-rule:nonzero;fill:rgb(100%,100%,100%);fill-opacity:1;" d="M 10.046875 29.523438 L 11.644531 31.121094 L 11.375 31.390625 L 12.375 31.597656 L 12.171875 30.589844 L 11.902344 30.863281 L 10.304688 29.265625 L 10.046875 29.523438 "/>
<path style=" stroke:none;fill-rule:nonzero;fill:rgb(100%,100%,100%);fill-opacity:1;" d="M 19.015625 26.742188 L 19.015625 24.484375 L 18.628906 24.484375 L 19.195312 23.632812 L 19.761719 24.484375 L 19.378906 24.484375 L 19.378906 26.742188 L 19.015625 26.742188 "/>
<path style=" stroke:none;fill-rule:nonzero;fill:rgb(100%,100%,100%);fill-opacity:1;" d="M 20.164062 27.066406 L 21.761719 25.472656 L 21.488281 25.199219 L 22.492188 25 L 22.289062 26 L 22.019531 25.730469 L 20.421875 27.324219 L 20.164062 27.066406 "/>
<path style=" stroke:none;fill-rule:nonzero;fill:rgb(100%,100%,100%);fill-opacity:1;" d="M 20.746094 28.113281 L 23.007812 28.113281 L 23.007812 27.730469 L 23.855469 28.296875 L 23.007812 28.863281 L 23.007812 28.480469 L 20.746094 28.480469 L 20.746094 28.113281 "/>
<path style=" stroke:none;fill-rule:nonzero;fill:rgb(100%,100%,100%);fill-opacity:1;" d="M 20.421875 29.265625 L 22.019531 30.863281 L 22.289062 30.589844 L 22.492188 31.597656 L 21.488281 31.390625 L 21.761719 31.121094 L 20.164062 29.523438 L 20.421875 29.265625 "/>
<path style=" stroke:none;fill-rule:nonzero;fill:rgb(100%,100%,100%);fill-opacity:1;" d="M 19.378906 29.851562 L 19.378906 32.109375 L 19.761719 32.109375 L 19.195312 32.957031 L 18.628906 32.109375 L 19.015625 32.109375 L 19.015625 29.851562 L 19.378906 29.851562 "/>
<path style=" stroke:none;fill-rule:nonzero;fill:rgb(100%,100%,100%);fill-opacity:1;" d="M 17.96875 27.324219 L 16.371094 25.730469 L 16.101562 26 L 15.898438 25 L 16.902344 25.199219 L 16.628906 25.472656 L 18.222656 27.066406 L 17.96875 27.324219 "/>
<path style=" stroke:none;fill-rule:nonzero;fill:rgb(100%,100%,100%);fill-opacity:1;" d="M 17.8125 30.1875 C 16.753906 29.445312 16.496094 27.992188 17.238281 26.933594 C 17.980469 25.875 19.4375 25.617188 20.496094 26.359375 C 21.554688 27.097656 21.808594 28.558594 21.070312 29.613281 C 20.328125 30.671875 18.867188 30.929688 17.8125 30.1875 "/>
<path style=" stroke:none;fill-rule:nonzero;fill:rgb(100%,100%,100%);fill-opacity:1;" d="M 18.015625 29.523438 L 16.421875 31.121094 L 16.691406 31.390625 L 15.6875 31.597656 L 15.890625 30.589844 L 16.160156 30.863281 L 17.757812 29.265625 L 18.015625 29.523438 "/>
<path style="fill:none;stroke-width:9.734;stroke-linecap:butt;stroke-linejoin:miter;stroke:rgb(100%,100%,100%);stroke-opacity:1;stroke-miterlimit:4;" d="M 102.070312 136.357813 L 178.554688 136.357813 " transform="matrix(0.1,0,0,-0.1,0,41.96)"/>
<path style="fill:none;stroke-width:4;stroke-linecap:butt;stroke-linejoin:miter;stroke:rgb(100%,100%,100%);stroke-opacity:1;stroke-miterlimit:4;" d="M 145.859375 136.553125 C 145.859375 120.185938 143.046875 106.865625 139.570312 106.865625 C 136.09375 106.865625 133.242188 120.185938 133.242188 136.553125 C 133.242188 152.959375 136.09375 166.279688 139.570312 166.279688 C 143.046875 166.279688 145.859375 152.959375 145.859375 136.553125 Z M 145.859375 136.553125 " transform="matrix(0.1,0,0,-0.1,0,41.96)"/>
<path style="fill:none;stroke-width:4;stroke-linecap:butt;stroke-linejoin:miter;stroke:rgb(100%,100%,100%);stroke-opacity:1;stroke-dasharray:18,18;stroke-miterlimit:4;" d="M 32.304688 54.404688 L 247.1875 54.404688 L 247.1875 223.154688 L 32.304688 223.154688 Z M 32.304688 54.404688 " transform="matrix(0.1,0,0,-0.1,0,41.96)"/>
</g>
</svg>
