<?xml version="1.0" encoding="UTF-8"?>
<svg xmlns="http://www.w3.org/2000/svg" xmlns:xlink="http://www.w3.org/1999/xlink" width="48.8pt" height="27.5pt" viewBox="0 0 48.8 27.5" version="1.1">
<g id="surface1">
<path style=" stroke:none;fill-rule:nonzero;fill:rgb(3.022766%,50.531006%,75.683594%);fill-opacity:1;" d="M 0.566406 12.117188 L 14.992188 0.453125 L 48.304688 0.453125 L 36.363281 12.117188 L 0.566406 12.117188 "/>
<path style="fill:none;stroke-width:4;stroke-linecap:butt;stroke-linejoin:miter;stroke:rgb(100%,100%,100%);stroke-opacity:1;stroke-miterlimit:4;" d="M 5.664062 153.828125 L 149.921875 270.46875 L 483.046875 270.46875 L 363.632812 153.828125 Z M 5.664062 153.828125 " transform="matrix(0.1,0,0,-0.1,0,27.5)"/>
<path style=" stroke:none;fill-rule:nonzero;fill:rgb(3.022766%,50.531006%,75.683594%);fill-opacity:1;" d="M 36.363281 27.011719 L 48.304688 14.84375 L 48.304688 0.472656 L 36.363281 12.117188 L 36.363281 27.011719 "/>
<path style="fill:none;stroke-width:4;stroke-linecap:butt;stroke-linejoin:miter;stroke:rgb(100%,100%,100%);stroke-opacity:1;stroke-miterlimit:4;" d="M 363.632812 4.882812 L 483.046875 126.5625 L 483.046875 270.273438 L 363.632812 153.828125 Z M 363.632812 4.882812 " transform="matrix(0.1,0,0,-0.1,0,27.5)"/>
<path style="fill-rule:nonzero;fill:rgb(3.022766%,50.531006%,75.683594%);fill-opacity:1;stroke-width:4;stroke-linecap:butt;stroke-linejoin:miter;stroke:rgb(100%,100%,100%);stroke-opacity:1;stroke-miterlimit:4;" d="M 6.132812 4.804688 L 363.632812 4.804688 L 363.632812 153.789062 L 6.132812 153.789062 Z M 6.132812 4.804688 " transform="matrix(0.1,0,0,-0.1,0,27.5)"/>
<path style=" stroke:none;fill-rule:nonzero;fill:rgb(100%,100%,100%);fill-opacity:1;" d="M 11.414062 7.878906 L 15.875 7.445312 L 15.230469 9.300781 L 13.875 8.648438 L 8.992188 10.742188 L 7.800781 10.414062 L 12.542969 8.355469 L 11.414062 7.878906 "/>
<path style=" stroke:none;fill-rule:nonzero;fill:rgb(100%,100%,100%);fill-opacity:1;" d="M 30.476562 7.953125 L 26.597656 7.285156 L 26.78125 9.328125 L 28.074219 8.699219 L 31.585938 10.472656 L 32.738281 10.160156 L 29.34375 8.429688 L 30.476562 7.953125 "/>
<path style="fill:none;stroke-width:4.5;stroke-linecap:round;stroke-linejoin:miter;stroke:rgb(100%,100%,100%);stroke-opacity:1;stroke-miterlimit:1;" d="M 343.476562 75.117188 C 343.476562 75.117188 319.6875 13.945312 291.09375 75.3125 C 262.539062 136.5625 238.671875 75.390625 238.671875 75.390625 C 238.671875 75.390625 214.921875 14.21875 186.328125 75.546875 C 157.773438 136.835938 134.0625 75.15625 134.0625 75.15625 C 134.0625 75.15625 110.351562 13.945312 81.757812 75.3125 C 53.203125 136.5625 29.492188 75.46875 29.492188 75.46875 " transform="matrix(0.1,0,0,-0.1,0,27.5)"/>
<path style="fill:none;stroke-width:9;stroke-linecap:round;stroke-linejoin:miter;stroke:rgb(100%,100%,100%);stroke-opacity:1;stroke-miterlimit:1;" d="M 29.492188 75.117188 C 29.492188 75.117188 53.28125 13.945312 81.875 75.3125 C 110.429688 136.5625 134.257812 75.390625 134.257812 75.390625 C 134.257812 75.390625 158.046875 14.21875 186.601562 75.546875 C 215.195312 136.835938 238.867188 75.15625 238.867188 75.15625 C 238.867188 75.15625 262.617188 13.945312 291.171875 75.3125 C 319.765625 136.5625 343.476562 75.46875 343.476562 75.46875 " transform="matrix(0.1,0,0,-0.1,0,27.5)"/>
<path style="fill:none;stroke-width:4.5;stroke-linecap:round;stroke-linejoin:miter;stroke:rgb(13.729858%,12.159729%,12.548828%);stroke-opacity:1;stroke-miterlimit:1;" d="M 348.984375 75.117188 C 348.984375 75.117188 325.195312 13.945312 296.601562 75.3125 C 268.007812 136.5625 244.179688 75.390625 244.179688 75.390625 C 244.179688 75.390625 220.429688 14.21875 191.835938 75.507812 C 163.28125 136.835938 139.609375 75.117188 139.609375 75.117188 C 139.609375 75.117188 115.859375 13.945312 87.265625 75.3125 C 58.710938 136.5625 35 75.429688 35 75.429688 " transform="matrix(0.1,0,0,-0.1,0,27.5)"/>
<path style="fill:none;stroke-width:9;stroke-linecap:round;stroke-linejoin:miter;stroke:rgb(13.729858%,12.159729%,12.548828%);stroke-opacity:1;stroke-miterlimit:1;" d="M 35 75.117188 C 35 75.117188 58.789062 13.945312 87.382812 75.3125 C 115.9375 136.5625 139.765625 75.390625 139.765625 75.390625 C 139.765625 75.390625 163.554688 14.21875 192.109375 75.507812 C 220.703125 136.835938 244.375 75.117188 244.375 75.117188 C 244.375 75.117188 268.085938 13.945312 296.679688 75.3125 C 325.273438 136.5625 348.984375 75.429688 348.984375 75.429688 " transform="matrix(0.1,0,0,-0.1,0,27.5)"/>
<path style="fill:none;stroke-width:4.5;stroke-linecap:round;stroke-linejoin:miter;stroke:rgb(100%,100%,100%);stroke-opacity:1;stroke-miterlimit:1;" d="M 343.476562 75.117188 C 343.476562 75.117188 319.6875 13.945312 291.09375 75.3125 C 262.539062 136.5625 238.671875 75.390625 238.671875 75.390625 C 238.671875 75.390625 214.921875 14.21875 186.328125 75.546875 C 157.773438 136.835938 134.0625 75.15625 134.0625 75.15625 C 134.0625 75.15625 110.351562 13.945312 81.757812 75.3125 C 53.203125 136.5625 29.492188 75.46875 29.492188 75.46875 " transform="matrix(0.1,0,0,-0.1,0,27.5)"/>
<path style="fill:none;stroke-width:9;stroke-linecap:round;stroke-linejoin:miter;stroke:rgb(100%,100%,100%);stroke-opacity:1;stroke-miterlimit:1;" d="M 29.492188 75.117188 C 29.492188 75.117188 53.28125 13.945312 81.875 75.3125 C 110.429688 136.5625 134.257812 75.390625 134.257812 75.390625 C 134.257812 75.390625 158.046875 14.21875 186.601562 75.546875 C 215.195312 136.835938 238.867188 75.15625 238.867188 75.15625 C 238.867188 75.15625 262.617188 13.945312 291.171875 75.3125 C 319.765625 136.5625 343.476562 75.46875 343.476562 75.46875 " transform="matrix(0.1,0,0,-0.1,0,27.5)"/>
<path style="fill:none;stroke-width:4.5;stroke-linecap:round;stroke-linejoin:miter;stroke:rgb(13.729858%,12.159729%,12.548828%);stroke-opacity:1;stroke-miterlimit:1;" d="M 348.984375 75.117188 C 348.984375 75.117188 325.195312 13.945312 296.601562 75.3125 C 268.007812 136.5625 244.179688 75.390625 244.179688 75.390625 C 244.179688 75.390625 220.429688 14.21875 191.835938 75.507812 C 163.28125 136.835938 139.609375 75.117188 139.609375 75.117188 C 139.609375 75.117188 115.859375 13.945312 87.265625 75.3125 C 58.710938 136.5625 35 75.429688 35 75.429688 " transform="matrix(0.1,0,0,-0.1,0,27.5)"/>
<path style="fill:none;stroke-width:9;stroke-linecap:round;stroke-linejoin:miter;stroke:rgb(13.729858%,12.159729%,12.548828%);stroke-opacity:1;stroke-miterlimit:1;" d="M 35 75.117188 C 35 75.117188 58.789062 13.945312 87.382812 75.3125 C 115.9375 136.5625 139.765625 75.390625 139.765625 75.390625 C 139.765625 75.390625 163.554688 14.21875 192.109375 75.507812 C 220.703125 136.835938 244.375 75.117188 244.375 75.117188 C 244.375 75.117188 268.085938 13.945312 296.679688 75.3125 C 325.273438 136.5625 348.984375 75.429688 348.984375 75.429688 " transform="matrix(0.1,0,0,-0.1,0,27.5)"/>
<path style="fill:none;stroke-width:4.5;stroke-linecap:round;stroke-linejoin:miter;stroke:rgb(100%,100%,100%);stroke-opacity:1;stroke-miterlimit:1;" d="M 343.476562 75.117188 C 343.476562 75.117188 319.6875 13.945312 291.09375 75.3125 C 262.539062 136.5625 238.671875 75.390625 238.671875 75.390625 C 238.671875 75.390625 214.921875 14.21875 186.328125 75.546875 C 157.773438 136.835938 134.0625 75.15625 134.0625 75.15625 C 134.0625 75.15625 110.351562 13.945312 81.757812 75.3125 C 53.203125 136.5625 29.492188 75.46875 29.492188 75.46875 " transform="matrix(0.1,0,0,-0.1,0,27.5)"/>
<path style="fill:none;stroke-width:9;stroke-linecap:round;stroke-linejoin:miter;stroke:rgb(100%,100%,100%);stroke-opacity:1;stroke-miterlimit:1;" d="M 29.492188 75.117188 C 29.492188 75.117188 53.28125 13.945312 81.875 75.3125 C 110.429688 136.5625 134.257812 75.390625 134.257812 75.390625 C 134.257812 75.390625 158.046875 14.21875 186.601562 75.546875 C 215.195312 136.835938 238.867188 75.15625 238.867188 75.15625 C 238.867188 75.15625 262.617188 13.945312 291.171875 75.3125 C 319.765625 136.5625 343.476562 75.46875 343.476562 75.46875 " transform="matrix(0.1,0,0,-0.1,0,27.5)"/>
<path style=" stroke:none;fill-rule:nonzero;fill:rgb(100%,100%,100%);fill-opacity:1;" d="M 23.71875 3.367188 L 21.785156 3.242188 L 28.09375 1.625 L 30.847656 3.777344 L 28.808594 3.667969 L 28.410156 3.652344 L 25.011719 6.074219 L 20.394531 6.101562 L 24.019531 3.390625 L 23.71875 3.367188 "/>
<path style=" stroke:none;fill-rule:nonzero;fill:rgb(100%,100%,100%);fill-opacity:1;" d="M 19.785156 9.210938 L 18.449219 9.183594 L 21.96875 6.992188 L 22.191406 9.207031 L 20.769531 9.214844 L 20.992188 9.222656 L 19.203125 11.171875 L 17.890625 11.164062 L 19.6875 9.21875 L 19.785156 9.210938 "/>
</g>
</svg>
