<?xml version="1.0" encoding="UTF-8"?>
<svg xmlns="http://www.w3.org/2000/svg" xmlns:xlink="http://www.w3.org/1999/xlink" width="35.91pt" height="30.32pt" viewBox="0 0 35.91 30.32" version="1.1">
<defs>
<clipPath id="clip1">
  <path d="M 28 20 L 35.898438 20 L 35.898438 26 L 28 26 Z M 28 20 "/>
</clipPath>
<clipPath id="clip2">
  <path d="M 4 0.0195312 L 31 0.0195312 L 31 2 L 4 2 Z M 4 0.0195312 "/>
</clipPath>
<clipPath id="clip3">
  <path d="M 2 0.0195312 L 33 0.0195312 L 33 4 L 2 4 Z M 2 0.0195312 "/>
</clipPath>
<clipPath id="clip4">
  <path d="M 27 0.0195312 L 31 0.0195312 L 31 19 L 27 19 Z M 27 0.0195312 "/>
</clipPath>
<clipPath id="clip5">
  <path d="M 25 0.0195312 L 33 0.0195312 L 33 21 L 25 21 Z M 25 0.0195312 "/>
</clipPath>
<clipPath id="clip6">
  <path d="M 23 22 L 31 22 L 31 30.019531 L 23 30.019531 Z M 23 22 "/>
</clipPath>
<clipPath id="clip7">
  <path d="M 26 23 L 35.898438 23 L 35.898438 30.019531 L 26 30.019531 Z M 26 23 "/>
</clipPath>
<clipPath id="clip8">
  <path d="M 30 23 L 35.898438 23 L 35.898438 30.019531 L 30 30.019531 Z M 30 23 "/>
</clipPath>
<clipPath id="clip9">
  <path d="M 0 22 L 31 22 L 31 30.019531 L 0 30.019531 Z M 0 22 "/>
</clipPath>
</defs>
<g id="surface1">
<g clip-path="url(#clip1)" clip-rule="nonzero">
<path style="fill:none;stroke-width:3.99994;stroke-linecap:round;stroke-linejoin:round;stroke:rgb(0%,0%,0%);stroke-opacity:1;stroke-miterlimit:4;" d="M 326.25 47.8875 C 330.3125 52.770312 308.085938 59.410937 333.125 63.5125 C 349.101562 66.16875 397.5 94.60625 283.984375 96.090625 " transform="matrix(0.1,0,0,-0.1,0,30.32)"/>
</g>
<path style="fill-rule:nonzero;fill:rgb(1.176453%,41.175842%,59.605408%);fill-opacity:1;stroke-width:3.99994;stroke-linecap:butt;stroke-linejoin:miter;stroke:rgb(100%,100%,100%);stroke-opacity:1;stroke-miterlimit:4;" d="M 66.5625 56.207812 L 250.078125 56.207812 L 250.078125 83.942187 L 66.5625 83.942187 Z M 66.5625 56.207812 " transform="matrix(0.1,0,0,-0.1,0,30.32)"/>
<path style=" stroke:none;fill-rule:nonzero;fill:rgb(1.176453%,41.175842%,59.605408%);fill-opacity:1;" d="M 24.988281 24.707031 L 24.988281 21.925781 L 28.691406 18.15625 L 28.691406 21.007812 L 24.988281 24.707031 "/>
<path style="fill:none;stroke-width:3.99994;stroke-linecap:butt;stroke-linejoin:miter;stroke:rgb(100%,100%,100%);stroke-opacity:1;stroke-miterlimit:4;" d="M 249.882812 56.129687 L 249.882812 83.942187 L 286.914062 121.6375 L 286.914062 93.121875 Z M 249.882812 56.129687 " transform="matrix(0.1,0,0,-0.1,0,30.32)"/>
<path style="fill-rule:nonzero;fill:rgb(1.176453%,41.175842%,59.605408%);fill-opacity:1;stroke-width:3.99994;stroke-linecap:butt;stroke-linejoin:miter;stroke:rgb(100%,100%,100%);stroke-opacity:1;stroke-miterlimit:4;" d="M 66.5625 51.207812 L 250.078125 51.207812 L 250.078125 83.942187 L 66.5625 83.942187 Z M 66.5625 51.207812 " transform="matrix(0.1,0,0,-0.1,0,30.32)"/>
<path style=" stroke:none;fill-rule:nonzero;fill:rgb(1.176453%,41.175842%,59.605408%);fill-opacity:1;" d="M 24.988281 25.207031 L 24.988281 21.925781 L 28.691406 18.15625 L 28.691406 21.507812 L 24.988281 25.207031 "/>
<path style="fill:none;stroke-width:3.99994;stroke-linecap:butt;stroke-linejoin:miter;stroke:rgb(100%,100%,100%);stroke-opacity:1;stroke-miterlimit:4;" d="M 249.882812 51.129687 L 249.882812 83.942187 L 286.914062 121.6375 L 286.914062 88.121875 Z M 249.882812 51.129687 " transform="matrix(0.1,0,0,-0.1,0,30.32)"/>
<path style=" stroke:none;fill-rule:nonzero;fill:rgb(1.176453%,41.175842%,59.605408%);fill-opacity:1;" d="M 29.976562 17.65625 L 27.382812 21.425781 L 4.542969 21.425781 L 8.21875 17.65625 L 29.976562 17.65625 "/>
<path style="fill:none;stroke-width:3.99994;stroke-linecap:butt;stroke-linejoin:miter;stroke:rgb(100%,100%,100%);stroke-opacity:1;stroke-miterlimit:4;" d="M 299.765625 126.6375 L 273.828125 88.942187 L 45.429688 88.942187 L 82.1875 126.6375 Z M 299.765625 126.6375 " transform="matrix(0.1,0,0,-0.1,0,30.32)"/>
<path style="fill-rule:nonzero;fill:rgb(1.176453%,41.175842%,59.605408%);fill-opacity:1;stroke-width:3.99994;stroke-linecap:butt;stroke-linejoin:miter;stroke:rgb(100%,100%,100%);stroke-opacity:1;stroke-miterlimit:4;" d="M 44.882812 76.207812 L 263.398438 76.207812 L 263.398438 88.942187 L 44.882812 88.942187 Z M 44.882812 76.207812 " transform="matrix(0.1,0,0,-0.1,0,30.32)"/>
<path style=" stroke:none;fill-rule:nonzero;fill:rgb(1.176453%,41.175842%,59.605408%);fill-opacity:1;" d="M 26.320312 22.707031 L 26.320312 21.425781 L 30.023438 17.65625 L 30.023438 19.007812 L 26.320312 22.707031 "/>
<path style="fill:none;stroke-width:3.99994;stroke-linecap:butt;stroke-linejoin:miter;stroke:rgb(100%,100%,100%);stroke-opacity:1;stroke-miterlimit:4;" d="M 263.203125 76.129687 L 263.203125 88.942187 L 300.234375 126.6375 L 300.234375 113.121875 Z M 263.203125 76.129687 " transform="matrix(0.1,0,0,-0.1,0,30.32)"/>
<path style=" stroke:none;fill-rule:nonzero;fill:rgb(1.176453%,41.175842%,59.605408%);fill-opacity:1;" d="M 29.976562 17.65625 L 27.382812 21.425781 L 4.542969 21.425781 L 8.21875 17.65625 L 29.976562 17.65625 "/>
<path style="fill:none;stroke-width:3.99994;stroke-linecap:butt;stroke-linejoin:miter;stroke:rgb(100%,100%,100%);stroke-opacity:1;stroke-miterlimit:4;" d="M 299.765625 126.6375 L 273.828125 88.942187 L 45.429688 88.942187 L 82.1875 126.6375 Z M 299.765625 126.6375 " transform="matrix(0.1,0,0,-0.1,0,30.32)"/>
<path style="fill-rule:nonzero;fill:rgb(1.176453%,41.175842%,59.605408%);fill-opacity:1;stroke-width:3.99994;stroke-linecap:butt;stroke-linejoin:miter;stroke:rgb(100%,100%,100%);stroke-opacity:1;stroke-miterlimit:4;" d="M 44.882812 76.207812 L 263.398438 76.207812 L 263.398438 88.942187 L 44.882812 88.942187 Z M 44.882812 76.207812 " transform="matrix(0.1,0,0,-0.1,0,30.32)"/>
<path style=" stroke:none;fill-rule:nonzero;fill:rgb(1.176453%,41.175842%,59.605408%);fill-opacity:1;" d="M 26.320312 22.707031 L 26.320312 21.425781 L 30.023438 17.65625 L 30.023438 19.007812 L 26.320312 22.707031 "/>
<path style="fill:none;stroke-width:3.99994;stroke-linecap:butt;stroke-linejoin:miter;stroke:rgb(100%,100%,100%);stroke-opacity:1;stroke-miterlimit:4;" d="M 263.203125 76.129687 L 263.203125 88.942187 L 300.234375 126.6375 L 300.234375 113.121875 Z M 263.203125 76.129687 " transform="matrix(0.1,0,0,-0.1,0,30.32)"/>
<g clip-path="url(#clip2)" clip-rule="nonzero">
<path style=" stroke:none;fill-rule:nonzero;fill:rgb(1.176453%,41.175842%,59.605408%);fill-opacity:1;" d="M 30.09375 0.328125 L 10.359375 0.328125 L 4.585938 1.6875 L 27.445312 1.6875 L 30.09375 0.328125 "/>
</g>
<g clip-path="url(#clip3)" clip-rule="nonzero">
<path style="fill:none;stroke-width:3.99994;stroke-linecap:butt;stroke-linejoin:miter;stroke:rgb(100%,100%,100%);stroke-opacity:1;stroke-miterlimit:4;" d="M 300.9375 299.91875 L 103.59375 299.91875 L 45.859375 286.325 L 274.453125 286.325 Z M 300.9375 299.91875 " transform="matrix(0.1,0,0,-0.1,0,30.32)"/>
</g>
<path style=" stroke:none;fill-rule:nonzero;fill:rgb(1.176453%,41.175842%,59.605408%);fill-opacity:1;" d="M 26.457031 19.828125 L 25.445312 18.992188 L 6.90625 18.992188 L 7.882812 19.828125 L 26.457031 19.828125 "/>
<path style="fill:none;stroke-width:3.99994;stroke-linecap:butt;stroke-linejoin:miter;stroke:rgb(100%,100%,100%);stroke-opacity:1;stroke-miterlimit:4;" d="M 264.570312 104.91875 L 254.453125 113.278125 L 69.0625 113.278125 L 78.828125 104.91875 Z M 264.570312 104.91875 " transform="matrix(0.1,0,0,-0.1,0,30.32)"/>
<path style=" stroke:none;fill-rule:nonzero;fill:rgb(1.176453%,41.175842%,59.605408%);fill-opacity:1;" d="M 26.570312 19.683594 L 25.292969 18.828125 L 30.019531 16.328125 L 26.976562 19.335938 L 26.570312 19.683594 "/>
<path style="fill:none;stroke-width:3.99994;stroke-linecap:butt;stroke-linejoin:miter;stroke:rgb(100%,100%,100%);stroke-opacity:1;stroke-miterlimit:4;" d="M 265.703125 106.364062 L 252.929688 114.91875 L 300.195312 139.91875 L 269.765625 109.840625 Z M 265.703125 106.364062 " transform="matrix(0.1,0,0,-0.1,0,30.32)"/>
<g clip-path="url(#clip4)" clip-rule="nonzero">
<path style=" stroke:none;fill-rule:nonzero;fill:rgb(1.176453%,41.175842%,59.605408%);fill-opacity:1;" d="M 27.445312 1.6875 L 27.445312 18.734375 L 30.09375 16.269531 L 30.09375 0.328125 L 27.445312 1.6875 "/>
</g>
<g clip-path="url(#clip5)" clip-rule="nonzero">
<path style="fill:none;stroke-width:3.99994;stroke-linecap:butt;stroke-linejoin:miter;stroke:rgb(100%,100%,100%);stroke-opacity:1;stroke-miterlimit:4;" d="M 274.453125 286.325 L 274.453125 115.85625 L 300.9375 140.504687 L 300.9375 299.91875 Z M 274.453125 286.325 " transform="matrix(0.1,0,0,-0.1,0,30.32)"/>
</g>
<path style="fill-rule:nonzero;fill:rgb(1.176453%,41.175842%,59.605408%);fill-opacity:1;stroke-width:3.99994;stroke-linecap:butt;stroke-linejoin:miter;stroke:rgb(100%,100%,100%);stroke-opacity:1;stroke-miterlimit:4;" d="M 45.859375 113.98125 L 274.453125 113.98125 L 274.453125 286.325 L 45.859375 286.325 Z M 45.859375 113.98125 " transform="matrix(0.1,0,0,-0.1,0,30.32)"/>
<path style=" stroke:none;fill-rule:nonzero;fill:rgb(1.176453%,41.175842%,59.605408%);fill-opacity:1;" d="M 25.523438 29.671875 L 25.523438 28.34375 L 28.382812 24.390625 L 28.382812 26.8125 L 25.523438 29.671875 "/>
<g clip-path="url(#clip6)" clip-rule="nonzero">
<path style="fill:none;stroke-width:3.99994;stroke-linecap:butt;stroke-linejoin:miter;stroke:rgb(100%,100%,100%);stroke-opacity:1;stroke-miterlimit:4;" d="M 255.234375 6.48125 L 255.234375 19.7625 L 283.828125 59.29375 L 283.828125 35.075 Z M 255.234375 6.48125 " transform="matrix(0.1,0,0,-0.1,0,30.32)"/>
</g>
<path style="fill-rule:nonzero;fill:rgb(1.176453%,41.175842%,59.605408%);fill-opacity:1;stroke-width:3.99994;stroke-linecap:butt;stroke-linejoin:miter;stroke:rgb(100%,100%,100%);stroke-opacity:1;stroke-miterlimit:4;" d="M 3.085938 6.48125 L 255.234375 6.48125 L 255.234375 19.567187 L 3.085938 19.567187 Z M 3.085938 6.48125 " transform="matrix(0.1,0,0,-0.1,0,30.32)"/>
<path style=" stroke:none;fill-rule:nonzero;fill:rgb(1.176453%,41.175842%,59.605408%);fill-opacity:1;" d="M 32.691406 28.625 L 34.367188 25.28125 L 30.542969 25.28125 L 28.871094 28.625 L 32.691406 28.625 "/>
<g clip-path="url(#clip7)" clip-rule="nonzero">
<path style="fill:none;stroke-width:3.99994;stroke-linecap:butt;stroke-linejoin:miter;stroke:rgb(100%,100%,100%);stroke-opacity:1;stroke-miterlimit:4;" d="M 326.914062 16.95 L 343.671875 50.3875 L 305.429688 50.3875 L 288.710938 16.95 Z M 326.914062 16.95 " transform="matrix(0.1,0,0,-0.1,0,30.32)"/>
</g>
<path style="fill-rule:nonzero;fill:rgb(1.176453%,41.175842%,59.605408%);fill-opacity:1;stroke-width:3.99994;stroke-linecap:butt;stroke-linejoin:miter;stroke:rgb(100%,100%,100%);stroke-opacity:1;stroke-miterlimit:4;" d="M 288.710938 6.207812 L 326.914062 6.207812 L 326.914062 16.95 L 288.710938 16.95 Z M 288.710938 6.207812 " transform="matrix(0.1,0,0,-0.1,0,30.32)"/>
<path style=" stroke:none;fill-rule:nonzero;fill:rgb(1.176453%,41.175842%,59.605408%);fill-opacity:1;" d="M 32.664062 29.730469 L 32.671875 28.625 L 34.34375 25.28125 L 34.335938 27.578125 L 32.664062 29.730469 "/>
<g clip-path="url(#clip8)" clip-rule="nonzero">
<path style="fill:none;stroke-width:3.99994;stroke-linecap:butt;stroke-linejoin:miter;stroke:rgb(100%,100%,100%);stroke-opacity:1;stroke-miterlimit:4;" d="M 326.640625 5.895312 L 326.71875 16.95 L 343.4375 50.3875 L 343.359375 27.41875 Z M 326.640625 5.895312 " transform="matrix(0.1,0,0,-0.1,0,30.32)"/>
</g>
<path style=" stroke:none;fill-rule:nonzero;fill:rgb(1.176453%,41.175842%,59.605408%);fill-opacity:1;" d="M 25.523438 28.363281 L 0.390625 28.363281 L 3.25 24.390625 L 28.382812 24.390625 L 25.523438 28.363281 "/>
<g clip-path="url(#clip9)" clip-rule="nonzero">
<path style="fill:none;stroke-width:3.99994;stroke-linecap:butt;stroke-linejoin:miter;stroke:rgb(100%,100%,100%);stroke-opacity:1;stroke-miterlimit:4;" d="M 255.234375 19.567187 L 3.90625 19.567187 L 32.5 59.29375 L 283.828125 59.29375 Z M 255.234375 19.567187 " transform="matrix(0.1,0,0,-0.1,0,30.32)"/>
</g>
<path style=" stroke:none;fill-rule:nonzero;fill:rgb(1.176453%,41.175842%,59.605408%);fill-opacity:1;" d="M 7.90625 3.484375 L 23.960938 3.484375 C 25.003906 3.484375 25.851562 4.332031 25.851562 5.378906 L 25.851562 15.519531 C 25.851562 16.5625 25.003906 17.410156 23.960938 17.410156 L 7.90625 17.410156 C 6.859375 17.410156 6.015625 16.5625 6.015625 15.519531 L 6.015625 5.378906 C 6.015625 4.332031 6.859375 3.484375 7.90625 3.484375 "/>
<path style="fill:none;stroke-width:3.99994;stroke-linecap:butt;stroke-linejoin:miter;stroke:rgb(100%,100%,100%);stroke-opacity:1;stroke-miterlimit:4;" d="M 79.0625 268.35625 L 239.609375 268.35625 C 250.039062 268.35625 258.515625 259.879687 258.515625 249.410937 L 258.515625 148.004687 C 258.515625 137.575 250.039062 129.098437 239.609375 129.098437 L 79.0625 129.098437 C 68.59375 129.098437 60.15625 137.575 60.15625 148.004687 L 60.15625 249.410937 C 60.15625 259.879687 68.59375 268.35625 79.0625 268.35625 Z M 79.0625 268.35625 " transform="matrix(0.1,0,0,-0.1,0,30.32)"/>
</g>
</svg>
