<?xml version="1.0" encoding="UTF-8"?>
<svg xmlns="http://www.w3.org/2000/svg" xmlns:xlink="http://www.w3.org/1999/xlink" width="43.53pt" height="31.59pt" viewBox="0 0 43.53 31.59" version="1.1">
<g id="surface1">
<path style="fill-rule:nonzero;fill:rgb(3.292847%,48.298645%,73.153687%);fill-opacity:1;stroke-width:4;stroke-linecap:butt;stroke-linejoin:miter;stroke:rgb(100%,100%,100%);stroke-opacity:1;stroke-miterlimit:4;" d="M 5.664062 6.446875 L 387.148438 6.446875 L 387.148438 257.110937 L 5.664062 257.110937 Z M 5.664062 6.446875 " transform="matrix(0.1,0,0,-0.1,0,31.59)"/>
<path style=" stroke:none;fill-rule:nonzero;fill:rgb(3.292847%,48.298645%,73.153687%);fill-opacity:1;" d="M 43.101562 24.523438 L 38.714844 30.945312 L 38.714844 5.878906 L 43.101562 0.558594 L 43.101562 24.523438 "/>
<path style="fill:none;stroke-width:4;stroke-linecap:butt;stroke-linejoin:miter;stroke:rgb(100%,100%,100%);stroke-opacity:1;stroke-miterlimit:4;" d="M 431.015625 70.665625 L 387.148438 6.446875 L 387.148438 257.110937 L 431.015625 310.314062 Z M 431.015625 70.665625 " transform="matrix(0.1,0,0,-0.1,0,31.59)"/>
<path style=" stroke:none;fill-rule:nonzero;fill:rgb(3.292847%,48.298645%,73.153687%);fill-opacity:1;" d="M 7.148438 0.558594 L 43.101562 0.558594 L 38.714844 5.878906 L 0.566406 5.878906 L 7.148438 0.558594 "/>
<path style="fill:none;stroke-width:4;stroke-linecap:butt;stroke-linejoin:miter;stroke:rgb(100%,100%,100%);stroke-opacity:1;stroke-miterlimit:4;" d="M 71.484375 310.314062 L 431.015625 310.314062 L 387.148438 257.110937 L 5.664062 257.110937 Z M 71.484375 310.314062 " transform="matrix(0.1,0,0,-0.1,0,31.59)"/>
<path style=" stroke:none;fill-rule:nonzero;fill:rgb(100%,100%,100%);fill-opacity:1;" d="M 33.472656 18.820312 L 27.082031 18.824219 L 27.082031 17.808594 L 33.472656 17.804688 L 33.472656 16.21875 L 37.171875 18.3125 L 33.472656 20.410156 L 33.472656 18.820312 "/>
<path style=" stroke:none;fill-rule:nonzero;fill:rgb(100%,100%,100%);fill-opacity:1;" d="M 7.910156 18.820312 L 1.519531 18.824219 L 1.519531 17.808594 L 7.910156 17.804688 L 7.910156 16.21875 L 11.609375 18.3125 L 7.910156 20.410156 L 7.910156 18.820312 "/>
<path style=" stroke:none;fill-rule:nonzero;fill:rgb(100%,100%,100%);fill-opacity:1;" d="M 32.367188 12.078125 L 27.015625 15.5625 L 26.460938 14.710938 L 31.816406 11.226562 L 30.957031 9.894531 L 35.199219 9.636719 L 33.234375 13.410156 L 32.367188 12.078125 "/>
<path style=" stroke:none;fill-rule:nonzero;fill:rgb(100%,100%,100%);fill-opacity:1;" d="M 32.367188 24.605469 L 27.015625 21.125 L 26.460938 21.976562 L 31.816406 25.457031 L 30.957031 26.789062 L 35.199219 27.046875 L 33.234375 23.277344 L 32.367188 24.605469 "/>
<path style=" stroke:none;fill-rule:nonzero;fill:rgb(3.292847%,48.298645%,73.153687%);fill-opacity:1;" d="M 25.710938 18.183594 C 25.710938 21.664062 22.890625 24.484375 19.410156 24.484375 C 15.929688 24.484375 13.109375 21.664062 13.109375 18.183594 C 13.109375 14.703125 15.929688 11.882812 19.410156 11.882812 C 22.890625 11.882812 25.710938 14.703125 25.710938 18.183594 "/>
<path style="fill:none;stroke-width:8;stroke-linecap:butt;stroke-linejoin:miter;stroke:rgb(100%,100%,100%);stroke-opacity:1;stroke-miterlimit:4;" d="M 257.109375 134.064062 C 257.109375 99.259375 228.90625 71.05625 194.101562 71.05625 C 159.296875 71.05625 131.09375 99.259375 131.09375 134.064062 C 131.09375 168.86875 159.296875 197.071875 194.101562 197.071875 C 228.90625 197.071875 257.109375 168.86875 257.109375 134.064062 Z M 257.109375 134.064062 " transform="matrix(0.1,0,0,-0.1,0,31.59)"/>
</g>
</svg>
