<?xml version="1.0" encoding="UTF-8"?>
<svg xmlns="http://www.w3.org/2000/svg" xmlns:xlink="http://www.w3.org/1999/xlink" width="36.88pt" height="26.08pt" viewBox="0 0 36.88 26.08" version="1.1">
<g id="surface1">
<path style="fill:none;stroke-width:4.49997;stroke-linecap:round;stroke-linejoin:miter;stroke:rgb(100%,100%,100%);stroke-opacity:1;stroke-miterlimit:1;" d="M 284.140625 52.9875 C 284.140625 52.9875 264.570312 2.675 241.015625 53.14375 C 217.539062 103.573437 197.929688 53.260937 197.929688 53.260937 C 197.929688 53.260937 178.359375 2.909375 154.84375 53.339062 C 131.367188 103.76875 111.875 53.026562 111.875 53.026562 C 111.875 53.026562 92.34375 2.675 68.828125 53.14375 C 45.3125 103.573437 25.820312 53.3 25.820312 53.3 " transform="matrix(0.1,0,0,-0.1,0,26.08)"/>
<path style="fill:none;stroke-width:8.99994;stroke-linecap:round;stroke-linejoin:miter;stroke:rgb(100%,100%,100%);stroke-opacity:1;stroke-miterlimit:1;" d="M 25.820312 52.9875 C 25.820312 52.9875 45.390625 2.675 68.90625 53.14375 C 92.421875 103.573437 112.03125 53.260937 112.03125 53.260937 C 112.03125 53.260937 131.5625 2.909375 155.078125 53.339062 C 178.59375 103.76875 198.085938 53.026562 198.085938 53.026562 C 198.085938 53.026562 217.578125 2.675 241.132812 53.14375 C 264.609375 103.573437 284.140625 53.3 284.140625 53.3 " transform="matrix(0.1,0,0,-0.1,0,26.08)"/>
<path style="fill:none;stroke-width:4.49997;stroke-linecap:round;stroke-linejoin:miter;stroke:rgb(0%,0%,0%);stroke-opacity:1;stroke-miterlimit:1;" d="M 288.671875 52.9875 C 288.671875 52.9875 269.101562 2.675 245.546875 53.14375 C 222.070312 103.573437 202.460938 53.260937 202.460938 53.260937 C 202.460938 53.260937 182.890625 2.909375 159.375 53.339062 C 135.898438 103.76875 116.40625 53.026562 116.40625 53.026562 C 116.40625 53.026562 96.875 2.675 73.359375 53.14375 C 49.84375 103.573437 30.351562 53.260937 30.351562 53.260937 " transform="matrix(0.1,0,0,-0.1,0,26.08)"/>
<path style="fill:none;stroke-width:8.99994;stroke-linecap:round;stroke-linejoin:miter;stroke:rgb(0%,0%,0%);stroke-opacity:1;stroke-miterlimit:1;" d="M 30.351562 52.9875 C 30.351562 52.9875 49.921875 2.675 73.4375 53.14375 C 96.953125 103.573437 116.5625 53.260937 116.5625 53.260937 C 116.5625 53.260937 136.09375 2.909375 159.609375 53.339062 C 183.125 103.76875 202.617188 53.026562 202.617188 53.026562 C 202.617188 53.026562 222.109375 2.675 245.664062 53.14375 C 269.140625 103.573437 288.671875 53.260937 288.671875 53.260937 " transform="matrix(0.1,0,0,-0.1,0,26.08)"/>
<path style="fill:none;stroke-width:4.49997;stroke-linecap:round;stroke-linejoin:miter;stroke:rgb(100%,100%,100%);stroke-opacity:1;stroke-miterlimit:1;" d="M 284.140625 52.9875 C 284.140625 52.9875 264.570312 2.675 241.015625 53.14375 C 217.539062 103.573437 197.929688 53.260937 197.929688 53.260937 C 197.929688 53.260937 178.359375 2.909375 154.84375 53.339062 C 131.367188 103.76875 111.875 53.026562 111.875 53.026562 C 111.875 53.026562 92.34375 2.675 68.828125 53.14375 C 45.3125 103.573437 25.820312 53.3 25.820312 53.3 " transform="matrix(0.1,0,0,-0.1,0,26.08)"/>
<path style="fill:none;stroke-width:8.99994;stroke-linecap:round;stroke-linejoin:miter;stroke:rgb(100%,100%,100%);stroke-opacity:1;stroke-miterlimit:1;" d="M 25.820312 52.9875 C 25.820312 52.9875 45.390625 2.675 68.90625 53.14375 C 92.421875 103.573437 112.03125 53.260937 112.03125 53.260937 C 112.03125 53.260937 131.5625 2.909375 155.078125 53.339062 C 178.59375 103.76875 198.085938 53.026562 198.085938 53.026562 C 198.085938 53.026562 217.578125 2.675 241.132812 53.14375 C 264.609375 103.573437 284.140625 53.3 284.140625 53.3 " transform="matrix(0.1,0,0,-0.1,0,26.08)"/>
<path style=" stroke:none;fill-rule:nonzero;fill:rgb(0.784302%,43.920898%,62.350464%);fill-opacity:1;" d="M 0.605469 6.152344 L 8.300781 0.464844 L 36.40625 0.464844 L 30.8125 6.152344 L 0.605469 6.152344 "/>
<path style="fill:none;stroke-width:3.99994;stroke-linecap:butt;stroke-linejoin:miter;stroke:rgb(100%,100%,100%);stroke-opacity:1;stroke-miterlimit:4;" d="M 6.054688 199.276562 L 83.007812 256.151562 L 364.0625 256.151562 L 308.125 199.276562 Z M 6.054688 199.276562 " transform="matrix(0.1,0,0,-0.1,0,26.08)"/>
<path style=" stroke:none;fill-rule:nonzero;fill:rgb(0.784302%,43.920898%,62.350464%);fill-opacity:1;" d="M 30.8125 25.59375 L 36.40625 19.925781 L 36.40625 0.484375 L 30.8125 6.152344 L 30.8125 25.59375 "/>
<path style="fill:none;stroke-width:3.99994;stroke-linecap:butt;stroke-linejoin:miter;stroke:rgb(100%,100%,100%);stroke-opacity:1;stroke-miterlimit:4;" d="M 308.125 4.8625 L 364.0625 61.542187 L 364.0625 255.95625 L 308.125 199.276562 Z M 308.125 4.8625 " transform="matrix(0.1,0,0,-0.1,0,26.08)"/>
<path style="fill-rule:nonzero;fill:rgb(0.784302%,43.920898%,62.350464%);fill-opacity:1;stroke-width:3.99994;stroke-linecap:butt;stroke-linejoin:miter;stroke:rgb(100%,100%,100%);stroke-opacity:1;stroke-miterlimit:4;" d="M 6.484375 4.784375 L 308.125 4.784375 L 308.125 199.276562 L 6.484375 199.276562 Z M 6.484375 4.784375 " transform="matrix(0.1,0,0,-0.1,0,26.08)"/>
<path style="fill:none;stroke-width:4.49997;stroke-linecap:round;stroke-linejoin:miter;stroke:rgb(100%,100%,100%);stroke-opacity:1;stroke-miterlimit:1;" d="M 284.140625 149.55 C 284.140625 149.55 264.570312 99.2375 241.015625 149.70625 C 217.539062 200.135937 197.929688 149.823437 197.929688 149.823437 C 197.929688 149.823437 178.359375 99.471875 154.84375 149.901562 C 131.367188 200.370312 111.875 149.589062 111.875 149.589062 C 111.875 149.589062 92.34375 99.2375 68.828125 149.70625 C 45.3125 200.135937 25.820312 149.8625 25.820312 149.8625 " transform="matrix(0.1,0,0,-0.1,0,26.08)"/>
<path style="fill:none;stroke-width:8.99994;stroke-linecap:round;stroke-linejoin:miter;stroke:rgb(100%,100%,100%);stroke-opacity:1;stroke-miterlimit:1;" d="M 25.820312 149.55 C 25.820312 149.55 45.390625 99.2375 68.90625 149.70625 C 92.421875 200.135937 112.03125 149.823437 112.03125 149.823437 C 112.03125 149.823437 131.5625 99.471875 155.078125 149.901562 C 178.59375 200.370312 198.085938 149.589062 198.085938 149.589062 C 198.085938 149.589062 217.578125 99.2375 241.132812 149.70625 C 264.609375 200.135937 284.140625 149.8625 284.140625 149.8625 " transform="matrix(0.1,0,0,-0.1,0,26.08)"/>
<path style="fill:none;stroke-width:4.49997;stroke-linecap:round;stroke-linejoin:miter;stroke:rgb(0%,0%,0%);stroke-opacity:1;stroke-miterlimit:1;" d="M 288.671875 149.55 C 288.671875 149.55 269.101562 99.2375 245.546875 149.70625 C 222.070312 200.135937 202.460938 149.823437 202.460938 149.823437 C 202.460938 149.823437 182.890625 99.471875 159.375 149.901562 C 135.898438 200.370312 116.40625 149.589062 116.40625 149.589062 C 116.40625 149.589062 96.875 99.2375 73.359375 149.70625 C 49.84375 200.135937 30.351562 149.8625 30.351562 149.8625 " transform="matrix(0.1,0,0,-0.1,0,26.08)"/>
<path style="fill:none;stroke-width:8.99994;stroke-linecap:round;stroke-linejoin:miter;stroke:rgb(0%,0%,0%);stroke-opacity:1;stroke-miterlimit:1;" d="M 30.351562 149.55 C 30.351562 149.55 49.921875 99.2375 73.4375 149.70625 C 96.953125 200.135937 116.5625 149.823437 116.5625 149.823437 C 116.5625 149.823437 136.09375 99.471875 159.609375 149.901562 C 183.125 200.370312 202.617188 149.589062 202.617188 149.589062 C 202.617188 149.589062 222.109375 99.2375 245.664062 149.70625 C 269.140625 200.135937 288.671875 149.8625 288.671875 149.8625 " transform="matrix(0.1,0,0,-0.1,0,26.08)"/>
<path style="fill:none;stroke-width:4.49997;stroke-linecap:round;stroke-linejoin:miter;stroke:rgb(100%,100%,100%);stroke-opacity:1;stroke-miterlimit:1;" d="M 284.140625 149.55 C 284.140625 149.55 264.570312 99.2375 241.015625 149.70625 C 217.539062 200.135937 197.929688 149.823437 197.929688 149.823437 C 197.929688 149.823437 178.359375 99.471875 154.84375 149.901562 C 131.367188 200.370312 111.875 149.589062 111.875 149.589062 C 111.875 149.589062 92.34375 99.2375 68.828125 149.70625 C 45.3125 200.135937 25.820312 149.8625 25.820312 149.8625 " transform="matrix(0.1,0,0,-0.1,0,26.08)"/>
<path style="fill:none;stroke-width:8.99994;stroke-linecap:round;stroke-linejoin:miter;stroke:rgb(100%,100%,100%);stroke-opacity:1;stroke-miterlimit:1;" d="M 25.820312 149.55 C 25.820312 149.55 45.390625 99.2375 68.90625 149.70625 C 92.421875 200.135937 112.03125 149.823437 112.03125 149.823437 C 112.03125 149.823437 131.5625 99.471875 155.078125 149.901562 C 178.59375 200.370312 198.085938 149.589062 198.085938 149.589062 C 198.085938 149.589062 217.578125 99.2375 241.132812 149.70625 C 264.609375 200.135937 284.140625 149.8625 284.140625 149.8625 " transform="matrix(0.1,0,0,-0.1,0,26.08)"/>
<path style="fill:none;stroke-width:4.49997;stroke-linecap:round;stroke-linejoin:miter;stroke:rgb(0%,0%,0%);stroke-opacity:1;stroke-miterlimit:1;" d="M 288.671875 149.55 C 288.671875 149.55 269.101562 99.2375 245.546875 149.70625 C 222.070312 200.135937 202.460938 149.823437 202.460938 149.823437 C 202.460938 149.823437 182.890625 99.471875 159.375 149.901562 C 135.898438 200.370312 116.40625 149.589062 116.40625 149.589062 C 116.40625 149.589062 96.875 99.2375 73.359375 149.70625 C 49.84375 200.135937 30.351562 149.8625 30.351562 149.8625 " transform="matrix(0.1,0,0,-0.1,0,26.08)"/>
<path style="fill:none;stroke-width:8.99994;stroke-linecap:round;stroke-linejoin:miter;stroke:rgb(0%,0%,0%);stroke-opacity:1;stroke-miterlimit:1;" d="M 30.351562 149.55 C 30.351562 149.55 49.921875 99.2375 73.4375 149.70625 C 96.953125 200.135937 116.5625 149.823437 116.5625 149.823437 C 116.5625 149.823437 136.09375 99.471875 159.609375 149.901562 C 183.125 200.370312 202.617188 149.589062 202.617188 149.589062 C 202.617188 149.589062 222.109375 99.2375 245.664062 149.70625 C 269.140625 200.135937 288.671875 149.8625 288.671875 149.8625 " transform="matrix(0.1,0,0,-0.1,0,26.08)"/>
<path style="fill:none;stroke-width:4.49997;stroke-linecap:round;stroke-linejoin:miter;stroke:rgb(100%,100%,100%);stroke-opacity:1;stroke-miterlimit:1;" d="M 284.140625 149.55 C 284.140625 149.55 264.570312 99.2375 241.015625 149.70625 C 217.539062 200.135937 197.929688 149.823437 197.929688 149.823437 C 197.929688 149.823437 178.359375 99.471875 154.84375 149.901562 C 131.367188 200.370312 111.875 149.589062 111.875 149.589062 C 111.875 149.589062 92.34375 99.2375 68.828125 149.70625 C 45.3125 200.135937 25.820312 149.8625 25.820312 149.8625 " transform="matrix(0.1,0,0,-0.1,0,26.08)"/>
<path style="fill:none;stroke-width:8.99994;stroke-linecap:round;stroke-linejoin:miter;stroke:rgb(100%,100%,100%);stroke-opacity:1;stroke-miterlimit:1;" d="M 25.820312 149.55 C 25.820312 149.55 45.390625 99.2375 68.90625 149.70625 C 92.421875 200.135937 112.03125 149.823437 112.03125 149.823437 C 112.03125 149.823437 131.5625 99.471875 155.078125 149.901562 C 178.59375 200.370312 198.085938 149.589062 198.085938 149.589062 C 198.085938 149.589062 217.578125 99.2375 241.132812 149.70625 C 264.609375 200.135937 284.140625 149.8625 284.140625 149.8625 " transform="matrix(0.1,0,0,-0.1,0,26.08)"/>
<path style="fill:none;stroke-width:4.49997;stroke-linecap:round;stroke-linejoin:miter;stroke:rgb(0%,0%,0%);stroke-opacity:1;stroke-miterlimit:1;" d="M 288.671875 52.9875 C 288.671875 52.9875 269.101562 2.675 245.546875 53.14375 C 222.070312 103.573437 202.460938 53.260937 202.460938 53.260937 C 202.460938 53.260937 182.890625 2.909375 159.375 53.339062 C 135.898438 103.76875 116.40625 53.026562 116.40625 53.026562 C 116.40625 53.026562 96.875 2.675 73.359375 53.14375 C 49.84375 103.573437 30.351562 53.260937 30.351562 53.260937 " transform="matrix(0.1,0,0,-0.1,0,26.08)"/>
<path style="fill:none;stroke-width:8.99994;stroke-linecap:round;stroke-linejoin:miter;stroke:rgb(0%,0%,0%);stroke-opacity:1;stroke-miterlimit:1;" d="M 30.351562 52.9875 C 30.351562 52.9875 49.921875 2.675 73.4375 53.14375 C 96.953125 103.573437 116.5625 53.260937 116.5625 53.260937 C 116.5625 53.260937 136.09375 2.909375 159.609375 53.339062 C 183.125 103.76875 202.617188 53.026562 202.617188 53.026562 C 202.617188 53.026562 222.109375 2.675 245.664062 53.14375 C 269.140625 103.573437 288.671875 53.260937 288.671875 53.260937 " transform="matrix(0.1,0,0,-0.1,0,26.08)"/>
<path style="fill:none;stroke-width:4.49997;stroke-linecap:round;stroke-linejoin:miter;stroke:rgb(100%,100%,100%);stroke-opacity:1;stroke-miterlimit:1;" d="M 284.140625 52.9875 C 284.140625 52.9875 264.570312 2.675 241.015625 53.14375 C 217.539062 103.573437 197.929688 53.260937 197.929688 53.260937 C 197.929688 53.260937 178.359375 2.909375 154.84375 53.339062 C 131.367188 103.76875 111.875 53.026562 111.875 53.026562 C 111.875 53.026562 92.34375 2.675 68.828125 53.14375 C 45.3125 103.573437 25.820312 53.3 25.820312 53.3 " transform="matrix(0.1,0,0,-0.1,0,26.08)"/>
<path style="fill:none;stroke-width:8.99994;stroke-linecap:round;stroke-linejoin:miter;stroke:rgb(100%,100%,100%);stroke-opacity:1;stroke-miterlimit:1;" d="M 25.820312 52.9875 C 25.820312 52.9875 45.390625 2.675 68.90625 53.14375 C 92.421875 103.573437 112.03125 53.260937 112.03125 53.260937 C 112.03125 53.260937 131.5625 2.909375 155.078125 53.339062 C 178.59375 103.76875 198.085938 53.026562 198.085938 53.026562 C 198.085938 53.026562 217.578125 2.675 241.132812 53.14375 C 264.609375 103.573437 284.140625 53.3 284.140625 53.3 " transform="matrix(0.1,0,0,-0.1,0,26.08)"/>
</g>
</svg>
