<?xml version="1.0" encoding="UTF-8"?>
<svg xmlns="http://www.w3.org/2000/svg" xmlns:xlink="http://www.w3.org/1999/xlink" width="77.32pt" height="52.37pt" viewBox="0 0 77.32 52.37" version="1.1">
<g id="surface1">
<path style="fill-rule:nonzero;fill:rgb(3.292847%,48.298645%,73.153687%);fill-opacity:1;stroke-width:4;stroke-linecap:butt;stroke-linejoin:miter;stroke:rgb(100%,100%,100%);stroke-opacity:1;stroke-miterlimit:4;" d="M 6.5625 8.739062 L 363.75 8.739062 L 363.75 124.715625 L 6.5625 124.715625 Z M 6.5625 8.739062 " transform="matrix(0.1,0,0,-0.1,0,52.37)"/>
<path style=" stroke:none;fill-rule:nonzero;fill:rgb(3.292847%,48.298645%,73.153687%);fill-opacity:1;" d="M 0.5625 39.957031 L 14.992188 28.265625 L 48.320312 28.265625 L 36.34375 39.957031 L 0.5625 39.957031 "/>
<path style="fill:none;stroke-width:4;stroke-linecap:butt;stroke-linejoin:miter;stroke:rgb(100%,100%,100%);stroke-opacity:1;stroke-miterlimit:4;" d="M 5.625 124.129687 L 149.921875 241.04375 L 483.203125 241.04375 L 363.4375 124.129687 Z M 5.625 124.129687 " transform="matrix(0.1,0,0,-0.1,0,52.37)"/>
<path style=" stroke:none;fill-rule:nonzero;fill:rgb(3.292847%,48.298645%,73.153687%);fill-opacity:1;" d="M 36.355469 51.859375 L 48.289062 38.96875 L 48.296875 28.285156 L 36.355469 39.941406 L 36.355469 51.859375 "/>
<path style="fill:none;stroke-width:4;stroke-linecap:butt;stroke-linejoin:miter;stroke:rgb(100%,100%,100%);stroke-opacity:1;stroke-miterlimit:4;" d="M 363.554688 5.10625 L 482.890625 134.0125 L 482.96875 240.848437 L 363.554688 124.285937 Z M 363.554688 5.10625 " transform="matrix(0.1,0,0,-0.1,0,52.37)"/>
<path style="fill-rule:nonzero;fill:rgb(3.292847%,48.298645%,73.153687%);fill-opacity:1;stroke-width:4;stroke-linecap:butt;stroke-linejoin:miter;stroke:rgb(100%,100%,100%);stroke-opacity:1;stroke-miterlimit:4;" d="M 109.375 138.660937 L 221.015625 228.739062 " transform="matrix(0.1,0,0,-0.1,0,52.37)"/>
<path style="fill-rule:nonzero;fill:rgb(3.292847%,48.298645%,73.153687%);fill-opacity:1;stroke-width:4;stroke-linecap:butt;stroke-linejoin:miter;stroke:rgb(100%,100%,100%);stroke-opacity:1;stroke-miterlimit:4;" d="M 198.046875 138.660937 L 309.726562 228.739062 " transform="matrix(0.1,0,0,-0.1,0,52.37)"/>
<path style="fill-rule:nonzero;fill:rgb(3.292847%,48.298645%,73.153687%);fill-opacity:1;stroke-width:4;stroke-linecap:butt;stroke-linejoin:miter;stroke:rgb(100%,100%,100%);stroke-opacity:1;stroke-miterlimit:4;" d="M 286.757812 138.660937 L 398.4375 228.739062 " transform="matrix(0.1,0,0,-0.1,0,52.37)"/>
<path style="fill:none;stroke-width:4;stroke-linecap:butt;stroke-linejoin:miter;stroke:rgb(100%,100%,100%);stroke-opacity:1;stroke-miterlimit:4;" d="M 154.921875 212.684375 L 419.21875 212.684375 " transform="matrix(0.1,0,0,-0.1,0,52.37)"/>
<path style=" stroke:none;fill-rule:nonzero;fill:rgb(100%,100%,100%);fill-opacity:1;" d="M 14.296875 45.386719 L 7.613281 45.386719 L 7.613281 44.773438 L 5.09375 45.675781 L 7.613281 46.578125 L 7.613281 45.96875 L 14.296875 45.96875 L 14.296875 45.386719 "/>
<path style=" stroke:none;fill-rule:nonzero;fill:rgb(100%,100%,100%);fill-opacity:1;" d="M 18.078125 47.304688 L 18.078125 49.675781 L 16.347656 49.675781 L 18.894531 50.570312 L 21.4375 49.675781 L 19.714844 49.675781 L 19.714844 47.304688 L 18.078125 47.304688 "/>
<path style=" stroke:none;fill-rule:nonzero;fill:rgb(100%,100%,100%);fill-opacity:1;" d="M 18.078125 44.113281 L 18.078125 41.746094 L 16.347656 41.746094 L 18.894531 40.851562 L 21.4375 41.746094 L 19.714844 41.746094 L 19.714844 44.113281 L 18.078125 44.113281 "/>
<path style=" stroke:none;fill-rule:nonzero;fill:rgb(100%,100%,100%);fill-opacity:1;" d="M 23.492188 45.96875 L 30.171875 45.96875 L 30.171875 46.578125 L 32.695312 45.675781 L 30.171875 44.773438 L 30.171875 45.386719 L 23.492188 45.386719 L 23.492188 45.96875 "/>
<path style="fill:none;stroke-width:4;stroke-linecap:butt;stroke-linejoin:miter;stroke:rgb(100%,100%,100%);stroke-opacity:1;stroke-miterlimit:4;" d="M 296.445312 28.895312 C 283.90625 24.207812 226.289062 37.098437 167.773438 57.723437 C 109.257812 78.348437 71.992188 98.85625 84.53125 103.54375 C 97.070312 108.23125 154.726562 95.340625 213.242188 74.715625 C 271.757812 54.129687 308.984375 33.582812 296.445312 28.895312 Z M 296.445312 28.895312 " transform="matrix(0.1,0,0,-0.1,0,52.37)"/>
<path style="fill:none;stroke-width:4;stroke-linecap:butt;stroke-linejoin:miter;stroke:rgb(100%,100%,100%);stroke-opacity:1;stroke-miterlimit:4;" d="M 293.125 103.895312 C 306.367188 99.442187 269.960938 79.0125 211.796875 58.270312 C 153.671875 37.528125 95.820312 24.325 82.578125 28.778125 C 69.296875 33.23125 105.703125 53.660937 163.867188 74.403125 C 221.992188 95.145312 279.84375 108.348437 293.125 103.895312 Z M 293.125 103.895312 " transform="matrix(0.1,0,0,-0.1,0,52.37)"/>
<path style=" stroke:none;fill-rule:nonzero;fill:rgb(74.978638%,74.523926%,74.636841%);fill-opacity:1;" d="M 21.636719 47.054688 C 23.84375 46.503906 24.378906 45.425781 22.832031 44.644531 C 21.285156 43.863281 18.246094 43.671875 16.039062 44.21875 C 13.832031 44.765625 13.296875 45.847656 14.84375 46.628906 C 16.386719 47.410156 19.425781 47.601562 21.636719 47.054688 "/>
<path style=" stroke:none;fill-rule:evenodd;fill:rgb(99.993896%,99.992371%,99.992371%);fill-opacity:1;" d="M 22.101562 31.105469 C 21.855469 31.871094 18.261719 31.945312 18.234375 31.105469 C 18.207031 30.332031 22.011719 30.257812 22.101562 31.105469 "/>
<path style=" stroke:none;fill-rule:evenodd;fill:rgb(99.993896%,99.992371%,99.992371%);fill-opacity:1;" d="M 30.972656 31.105469 C 30.726562 31.871094 27.132812 31.945312 27.101562 31.105469 C 27.078125 30.332031 30.882812 30.257812 30.972656 31.105469 "/>
<path style=" stroke:none;fill-rule:evenodd;fill:rgb(99.993896%,99.992371%,99.992371%);fill-opacity:1;" d="M 39.84375 31.105469 C 39.59375 31.871094 36.003906 31.945312 35.972656 31.105469 C 35.945312 30.332031 39.753906 30.257812 39.84375 31.105469 "/>
<path style="fill:none;stroke-width:4;stroke-linecap:butt;stroke-linejoin:miter;stroke:rgb(100%,100%,100%);stroke-opacity:1;stroke-miterlimit:4;" d="M 121.09375 183.7 L 385.390625 183.7 " transform="matrix(0.1,0,0,-0.1,0,52.37)"/>
<path style=" stroke:none;fill-rule:evenodd;fill:rgb(99.993896%,99.992371%,99.992371%);fill-opacity:1;" d="M 18.71875 34.003906 C 18.472656 34.769531 14.878906 34.84375 14.847656 34.003906 C 14.824219 33.230469 18.628906 33.15625 18.71875 34.003906 "/>
<path style=" stroke:none;fill-rule:evenodd;fill:rgb(99.993896%,99.992371%,99.992371%);fill-opacity:1;" d="M 27.589844 34.003906 C 27.34375 34.769531 23.75 34.84375 23.71875 34.003906 C 23.691406 33.230469 27.5 33.15625 27.589844 34.003906 "/>
<path style=" stroke:none;fill-rule:evenodd;fill:rgb(99.993896%,99.992371%,99.992371%);fill-opacity:1;" d="M 36.460938 34.003906 C 36.210938 34.769531 32.617188 34.84375 32.589844 34.003906 C 32.5625 33.230469 36.367188 33.15625 36.460938 34.003906 "/>
<path style="fill:none;stroke-width:4;stroke-linecap:butt;stroke-linejoin:miter;stroke:rgb(100%,100%,100%);stroke-opacity:1;stroke-miterlimit:4;" d="M 86.757812 154.129687 L 351.015625 154.129687 " transform="matrix(0.1,0,0,-0.1,0,52.37)"/>
<path style=" stroke:none;fill-rule:evenodd;fill:rgb(99.993896%,99.992371%,99.992371%);fill-opacity:1;" d="M 14.882812 36.960938 C 14.636719 37.726562 11.042969 37.800781 11.011719 36.960938 C 10.984375 36.1875 14.792969 36.113281 14.882812 36.960938 "/>
<path style=" stroke:none;fill-rule:evenodd;fill:rgb(99.993896%,99.992371%,99.992371%);fill-opacity:1;" d="M 23.753906 36.960938 C 23.503906 37.726562 19.910156 37.800781 19.882812 36.960938 C 19.855469 36.1875 23.660156 36.113281 23.753906 36.960938 "/>
<path style=" stroke:none;fill-rule:evenodd;fill:rgb(99.993896%,99.992371%,99.992371%);fill-opacity:1;" d="M 32.621094 36.960938 C 32.375 37.726562 28.78125 37.800781 28.753906 36.960938 C 28.726562 36.1875 32.53125 36.113281 32.621094 36.960938 "/>
</g>
</svg>
