<?xml version="1.0" encoding="UTF-8"?>
<svg xmlns="http://www.w3.org/2000/svg" xmlns:xlink="http://www.w3.org/1999/xlink" width="37.16pt" height="25.18pt" viewBox="0 0 37.16 25.18" version="1.1">
<defs>
<clipPath id="clip1">
  <path d="M 0 5 L 37 5 L 37 25 L 0 25 Z M 0 5 "/>
</clipPath>
<clipPath id="clip2">
  <path d="M 0 0 L 37 0 L 37 17 L 0 17 Z M 0 0 "/>
</clipPath>
</defs>
<g id="surface1">
<path style=" stroke:none;fill-rule:nonzero;fill:rgb(0.784302%,42.352295%,60.78186%);fill-opacity:1;" d="M 36.984375 7.351562 C 36.984375 11.300781 28.75 14.503906 18.59375 14.503906 C 8.433594 14.503906 0.199219 11.300781 0.199219 7.351562 L 0.199219 17.828125 C 0.199219 21.777344 8.433594 24.980469 18.59375 24.980469 C 28.75 24.980469 36.984375 21.777344 36.984375 17.828125 L 36.984375 7.351562 "/>
<g clip-path="url(#clip1)" clip-rule="nonzero">
<path style="fill:none;stroke-width:4;stroke-linecap:butt;stroke-linejoin:miter;stroke:rgb(100%,100%,100%);stroke-opacity:1;stroke-miterlimit:4;" d="M 369.84375 178.284375 C 369.84375 138.792188 287.5 106.760938 185.9375 106.760938 C 84.335938 106.760938 1.992188 138.792188 1.992188 178.284375 L 1.992188 73.51875 C 1.992188 34.026563 84.335938 1.995313 185.9375 1.995313 C 287.5 1.995313 369.84375 34.026563 369.84375 73.51875 Z M 369.84375 178.284375 " transform="matrix(0.1,0,0,-0.1,0,25.18)"/>
</g>
<path style=" stroke:none;fill-rule:nonzero;fill:rgb(0.784302%,42.352295%,60.78186%);fill-opacity:1;" d="M 18.59375 14.503906 C 28.75 14.503906 36.984375 11.300781 36.984375 7.351562 C 36.984375 3.402344 28.75 0.199219 18.59375 0.199219 C 8.433594 0.199219 0.199219 3.402344 0.199219 7.351562 C 0.199219 11.300781 8.433594 14.503906 18.59375 14.503906 "/>
<g clip-path="url(#clip2)" clip-rule="nonzero">
<path style="fill:none;stroke-width:4;stroke-linecap:butt;stroke-linejoin:miter;stroke:rgb(100%,100%,100%);stroke-opacity:1;stroke-miterlimit:4;" d="M 185.9375 106.760938 C 287.5 106.760938 369.84375 138.792188 369.84375 178.284375 C 369.84375 217.776563 287.5 249.807813 185.9375 249.807813 C 84.335938 249.807813 1.992188 217.776563 1.992188 178.284375 C 1.992188 138.792188 84.335938 106.760938 185.9375 106.760938 Z M 185.9375 106.760938 " transform="matrix(0.1,0,0,-0.1,0,25.18)"/>
</g>
<path style=" stroke:none;fill-rule:nonzero;fill:rgb(100%,100%,100%);fill-opacity:1;" d="M 14.394531 4.554688 L 15.910156 6.832031 L 10.167969 8.160156 L 11.421875 7.117188 L 2.550781 5.597656 L 4.773438 3.929688 L 13.339844 5.378906 L 14.394531 4.554688 "/>
<path style=" stroke:none;fill-rule:nonzero;fill:rgb(100%,100%,100%);fill-opacity:1;" d="M 22.472656 10.078125 L 21.4375 7.730469 L 26.617188 6.695312 L 25.71875 7.5 L 34.351562 8.976562 L 32.28125 10.632812 L 23.699219 9.019531 L 22.472656 10.078125 "/>
<path style=" stroke:none;fill-rule:nonzero;fill:rgb(100%,100%,100%);fill-opacity:1;" d="M 19.640625 3.3125 L 25.441406 1.722656 L 25.511719 4.210938 L 24.058594 3.933594 L 21.230469 6.28125 L 18.527344 5.886719 L 21.449219 3.589844 L 19.640625 3.3125 "/>
<path style=" stroke:none;fill-rule:nonzero;fill:rgb(100%,100%,100%);fill-opacity:1;" d="M 17.15625 12.222656 L 11.628906 13.257812 L 11.421875 10.703125 L 13.011719 11.046875 L 16.050781 8.449219 L 18.742188 8.90625 L 15.496094 11.738281 L 17.15625 12.222656 "/>
</g>
</svg>
