<?xml version="1.0" encoding="UTF-8"?>
<svg xmlns="http://www.w3.org/2000/svg" xmlns:xlink="http://www.w3.org/1999/xlink" width="48.81pt" height="24.56pt" viewBox="0 0 48.81 24.56" version="1.1">
<g id="surface1">
<path style="fill-rule:nonzero;fill:rgb(1.176453%,41.175842%,59.605408%);fill-opacity:1;stroke-width:3.99994;stroke-linecap:butt;stroke-linejoin:miter;stroke:rgb(100%,100%,100%);stroke-opacity:1;stroke-miterlimit:4;" d="M 6.5625 8.764062 L 363.75 8.764062 L 363.75 124.701562 L 6.5625 124.701562 Z M 6.5625 8.764062 " transform="matrix(0.1,0,0,-0.1,0,24.56)"/>
<path style=" stroke:none;fill-rule:nonzero;fill:rgb(1.176453%,41.175842%,59.605408%);fill-opacity:1;" d="M 0.5625 12.148438 L 14.992188 0.453125 L 48.320312 0.453125 L 36.34375 12.148438 L 0.5625 12.148438 "/>
<path style="fill:none;stroke-width:3.99994;stroke-linecap:butt;stroke-linejoin:miter;stroke:rgb(100%,100%,100%);stroke-opacity:1;stroke-miterlimit:4;" d="M 5.625 124.115625 L 149.921875 241.06875 L 483.203125 241.06875 L 363.4375 124.115625 Z M 5.625 124.115625 " transform="matrix(0.1,0,0,-0.1,0,24.56)"/>
<path style=" stroke:none;fill-rule:nonzero;fill:rgb(1.176453%,41.175842%,59.605408%);fill-opacity:1;" d="M 36.355469 24.050781 L 48.289062 11.15625 L 48.296875 0.472656 L 36.355469 12.128906 L 36.355469 24.050781 "/>
<path style="fill:none;stroke-width:3.99994;stroke-linecap:butt;stroke-linejoin:miter;stroke:rgb(100%,100%,100%);stroke-opacity:1;stroke-miterlimit:4;" d="M 363.554688 5.092187 L 482.890625 134.0375 L 482.96875 240.873437 L 363.554688 124.310937 Z M 363.554688 5.092187 " transform="matrix(0.1,0,0,-0.1,0,24.56)"/>
<path style=" stroke:none;fill-rule:nonzero;fill:rgb(100%,100%,100%);fill-opacity:1;" d="M 21.5 9.105469 L 20.808594 9.671875 L 11.902344 9.671875 L 11.011719 10.5625 L 8.597656 9.507812 L 13.453125 8.121094 L 12.59375 9.105469 L 21.5 9.105469 "/>
<path style=" stroke:none;fill-rule:nonzero;fill:rgb(100%,100%,100%);fill-opacity:1;" d="M 28.5 4.730469 L 27.808594 5.296875 L 18.902344 5.296875 L 18.011719 6.1875 L 15.597656 5.132812 L 20.453125 3.746094 L 19.59375 4.730469 L 28.5 4.730469 "/>
<path style=" stroke:none;fill-rule:nonzero;fill:rgb(100%,100%,100%);fill-opacity:1;" d="M 23.074219 7.558594 L 23.765625 6.992188 L 32.675781 6.992188 L 33.5625 6.101562 L 35.976562 7.15625 L 31.121094 8.542969 L 31.980469 7.558594 L 23.074219 7.558594 "/>
<path style=" stroke:none;fill-rule:nonzero;fill:rgb(100%,100%,100%);fill-opacity:1;" d="M 27.699219 3.183594 L 28.390625 2.617188 L 37.300781 2.617188 L 38.1875 1.726562 L 40.601562 2.78125 L 35.746094 4.167969 L 36.605469 3.183594 L 27.699219 3.183594 "/>
</g>
</svg>
